<mxfile host="Electron" agent="Mozilla/5.0 (Windows NT 10.0; Win64; x64) AppleWebKit/537.36 (KHTML, like Gecko) draw.io/28.0.6 Chrome/138.0.7204.100 Electron/37.2.3 Safari/537.36" version="28.0.6">
  <diagram name="Seite-1" id="BnpyPPSV_K6Oh7k7SFGy">
    <mxGraphModel dx="2066" dy="1201" grid="1" gridSize="10" guides="1" tooltips="1" connect="1" arrows="1" fold="1" page="1" pageScale="1" pageWidth="827" pageHeight="1169" math="0" shadow="0">
      <root>
        <mxCell id="0" />
        <mxCell id="1" parent="0" />
        <mxCell id="FDqJe7q0dYofpkMNyn92-31" value="" style="rounded=0;whiteSpace=wrap;html=1;dashed=1;fillColor=none;" vertex="1" parent="1">
          <mxGeometry x="20" y="40" width="784" height="430" as="geometry" />
        </mxCell>
        <mxCell id="FDqJe7q0dYofpkMNyn92-32" value="&lt;b&gt;Input Layer&amp;nbsp;&lt;/b&gt;" style="text;html=1;align=center;verticalAlign=middle;resizable=0;points=[];autosize=1;strokeColor=none;fillColor=none;" vertex="1" parent="1">
          <mxGeometry x="30" y="10" width="90" height="30" as="geometry" />
        </mxCell>
        <mxCell id="FDqJe7q0dYofpkMNyn92-1" value="" style="shape=image;verticalLabelPosition=bottom;labelBackgroundColor=default;verticalAlign=top;aspect=fixed;imageAspect=0;image=data:image/png,iVBORw0KGgoAAAANSUhEUgAAAgAAAAIACAYAAAD0eNT6AAAgAElEQVR4Xu3de7B2VV0HcESRmyAoyE3FEFFEEgoCFUHSvKCIGpfBC4OKqHgXRU0gEEGBcvojLadRJ6dsahrvOTppWVONTU5ZOVqWjWOlqaVNk+WkYr+l59GX9/Zc9tp7r8vnmVnD4T17r/Vbn9+eOd/3vHs/zx328CJAgAABAgS6E7hDdzu2YQIECBAgQGAPAcBFQIAAAQIEOhQQADpsui0TIECAAAEBwDVAgAABAgQ6FBAAOmy6LRMgQIAAAQHANUCAAAECBDoUEAA6bLotEyBAgAABAcA1QIAAAQIEOhQQADpsui0TIECAAAEBwDVAgAABAgQ6FBAAOmy6LRMgQIAAAQHANUCAAAECBDoUEAA6bLotEyBAgAABAcA1QIAAAQIEOhQQADpsui0TIECAAAEBwDVAgAABAgQ6FBAAOmy6LRMgQIAAAQHANUCAAAECBDoUEAA6bLotEyBAgAABAcA1QIAAAQIEOhQQADpsui0TIECAAAEBwDVAgAABAgQ6FBAAOmy6LRMgQIAAAQHANUCAAAECBDoUEAA6bLotEyBAgAABAcA1QIAAAQIEOhQQADpsui0TIECAAAEBwDVAgAABAgQ6FBAAOmy6LRMgQIAAAQHANUCAAAECBDoUEAA6bLotEyBAgAABAcA1QIAAAQIEOhQQADpsui0TIECAAAEBwDVAgAABAgQ6FBAAOmy6LRMgQIAAAQHANUCAAAECBDoUEAA6bLotEyBAgAABAcA1QIAAAQIEOhQQADpsui0TIECAAAEBwDVAgAABAgQ6FBAAOmy6LRMgQIAAAQHANUCAAAECBDoUEAA6bLotEyBAgAABAcA1QIAAAQIEOhQQADpsui0TIECAAAEBwDVAgAABAgQ6FBAAOmy6LRMgQIAAAQHANUCAAAECBDoUEAA6bLotEyBAgAABAcA1QIAAAQIEOhQQADpsui0TIECAAAEBwDVAgAABAgQ6FBAAOmy6LRMgQIAAAQHANUCAAAECBDoUEAA6bLotEyBAgAABAcA1QIAAAQIEOhQQADpsui0TIECAAAEBwDVAgAABAgQ6FBAAOmy6LRMgQIAAAQHANUCAAAECBDoUEAA6bLotEyBAgAABAcA1QIAAAQIEOhQQADpsui0TIECAAAEBwDVAgAABAgQ6FBAAOmy6LRMgQIAAAQHANUCAAAECBDoUEAA6bLotEyBAgAABAcA1QIAAAQIEOhQQADpsui0TIECAAAEBwDVAgAABAgQ6FBAAOmy6LRMgQIAAAQHANUCAAAECBDoUEAA6bLotEyBAgAABAcA1QIAAAQIEOhQQADpsui0TIECAAAEBwDVAgAABAgQ6FBAAOmy6LRMgQIAAAQHANUCAAAECBDoUEAA6bLotEyBAgAABAcA1QIAAAQIEOhQQADpsui0TIECAAAEBwDVAgAABAgQ6FBAAOmy6LRMgQIAAAQHANUCAAAECBDoUEAA6bLotEyBAgAABAcA1QIAAAQIEOhQQADpsui0TIECAAAEBwDVAgAABAgQ6FBAAOmy6LRMgQIAAAQHANUCAAAECBDoUEAA6bLotEyBAgAABAcA1QIAAAQIEOhQQADpsui0TIECAAAEBwDVAgAABAgQ6FBAAOmy6LRMgQIAAAQHANUCAAAECBDoUEAA6bLotEyBAgAABAcA1QIAAAQIEOhQQADpsui0TIECAAAEBwDVAgAABAgQ6FBAAOmy6LRMgQIAAAQHANUCAAAECBDoUmCMAHBfO945xRIwjt8bi68Pi//fqsA+2TIBA2QLfjfK+GuPLMb60NRZf/0v8/2difK/sLaiOwO0FpggAd4olz4xx3tY4WhMIECDQmMBXYj/vj/G+GB+L8a3G9mc7DQqMFQD2D6tztn7gp/8e3KCdLREgQGBnAt+MP/zwVhj4QPz3PzERKFEgdwBIv75/foxrYhxS4obVRIAAgQkF/ivWujXGm2L8z4TrWorAUoFcASDNc2GMm2Ics3RVBxAgQKAvgXS/wPUx3hbjO31t3W5LFcgRAM6Ozd0S45RSN6kuAgQIFCLw91HHa2K8p5B6lNGxwJAAsG+4/VqMp3XsZ+sECBDYROCjcdJFMb6+ycnOIZBDYNMAkB7fS3e7+lt/ji6YgwCBHgU+H5s+N8Zne9y8Pc8vsEkAODXKfm+MFAK8CBAgQGBzgXST4MUxPrT5FM4ksJnAugEgXahvj7HPZss5iwABAgS2E7gt/v+qGL9IhsCUAusEgKujsBumLM5aBAgQ6Egg3VN1eUf7tdWZBVYNAM+IOt85c62WJ0CAQOsC1/qLVustLmd/qwSA06Pcj8fYu5yyVUKAAIEmBdLnCZwf491N7s6mihJYFgDuGdX+RYzDi6paMQQIEGhXIL2V8BkxPtXuFu2sBIHdBYD9osA/iXFyCYWqgQABAh0JfDH2mp64Sp9A6EVgFIHdBYDfiRUvGGVVkxIgQIDAMoE/iwMeEePbyw70fQKbCOwqADw+JvvgJhM6hwABAgSyCbwwZnpzttlMRGAbgZ0FgD3j+38d40GkCBAgQGBWgfRPAPeN8d+zVmHxJgV2FgAujZ2+o8nd2hQBAgTqE0ifInhdfWWruHSB7QNAeoe/z8W4V+mFq48AAQKdCKS//R8b4yud7Nc2JxLYPgC8MtZNH+3rRYAAAQLlCLwlSnlBOeWopAWBbQPAQbGhf4pxcAsbswcCBAg0JPCd2MvxMf6xoT3ZyswC2waAy6KW9F7UXgQIECBQnsCNUVL6TBYvAlkEtg0AvxcznpNlVpMQIECAQG6BT8eEJ+ae1Hz9CiwCwAFB8LUY3u+/32vBzgkQKF8gPRKY/qnWi8BggUUAuDBm+u3Bs5mAAAECBMYUuDImf9OYC5i7H4FFAHhXbPnifrZtpwQIEKhS4I+j6rOqrFzRxQmkAHDnGOnX/wcWV52CCBAgQGBbge/G/6RPZ/13LASGCqQAcHaMPxg6kfMJECBAYBKBp8YqvzXJShZpWiAFgGfGeHvTu7Q5AgQItCPw2tjKTe1sx07mEkgBIF1Mr5+rAOsSIECAwFoC3hVwLS4H70ogBYD0UZNXICJAgACBKgTeF1U+qYpKFVm0QAoA747x5KKrVBwBAgQILAQ+GV+cioPAUIEUAD4R47ShEzmfAAECBCYR+HKscuQkK1mkaYEUAL4Yw8f/Nt1mmyNAoCGB22Iv6fHt9EigF4GNBVIA+L8Ye208gxMJECBAYGqBo2LBL029qPXaEkgB4HttbcluCBAg0LzAj8UOv9D8Lm1wVAEBYFRekxMgQGAUAQFgFNa+JhUA+uq33RIg0IaAANBGH+faxUmx8C0CwFz81iVAgMDmAgLA5nY9n3nv2Hx647+nx7iDANDzpWDvBAjUKiAA1Nq5eeo+OJZ9TYwXx9h7UYIAME8zrEqAAIEhAgLAEL1+zk0/7F8YI73lfwoBt3sJAP1cCHZKgEA7AgJAO70cYyfpZ3v61MgbYxy9qwUEgDHozUmAAIFxBQSAcX1rnv1RUfwtMU5etgkBYJmQ7xMgQKA8AQGgvJ7MXdGPb/3gf8yqhQgAq0o5jgABAuUICADl9GLuStJb+d8Q4xkx9lynGAFgHS3HEiBAoAwBAaCMPsxZxUGx+OLO/n02KUQA2ETNOQQIEJhXQACY13/O1dMHQb0gxtUx7jakEAFgiJ5zCRAgMI+AADCP+5yrpp/XF8dId/bfJ0chAkAORXMQIEBgWgEBYFrvuVf76Sgg3dn/kzkLEQByapqLAAEC0wgIANM4z73KiVHAzTEeN0YhAsAYquYkQIDAuAICwLi+c89+zygg3dl/SYy17uxfp3ABYB0txxIgQKAMAQGgjD7kruKuMeGrY7wkxr65J99+PgFgbGHzEyBAIL+AAJDfdM4Z0539V8RId/bffapCBICppK1DgACBfAICQD7LOWdKP4MvipHu7D9m6kIEgKnFrUeAAIHhAgLAcMO5Zzg7Ckh39p8yVyECwFzy1iVAgMDmAgLA5nZzn/mgKCDd2X/O3IUIAHN3wPoECBBYX0AAWN9s7jOOigJeF+PSGKPd2b/OJgWAdbQcS4AAgTIEBIAy+rBKFQfGQenO/pfGGP3O/lUKWhwjAKyj5VgCBAiUISAAlNGH3VWxV3zz+TGuiXFIieUKACV2RU0ECBDYvYAAUO4Vkn6uXhDjphj3LbfMPfYQAErujtoIECCwcwEBoMwr46wo69YYp5ZZ3u2rEgBq6JIaCRAgcHsBAaCsK+KEKOeNMZ5QVlm7r0YAqKlbaiVAgMAPBASAMq6EI6OM62M8M8Ydyyhp9SoEgNWtHEmAAIFSBASAeTtxQCz/qhgvi7HfvKVsvroAsLmdMwkQIDCXgAAwj3y6s/+5Ma6Nceg8JeRbVQDIZ2kmAgQITCUgAEwl/aN1Fnf2Hzv90uOsKACM42pWAgQIjCkgAIype/u5Hx7/m+7sP226JadZSQCYxtkqBAgQyCkgAOTU3Plcx8cfpzv7nzj+UvOsIADM425VAgQIDBEQAIbo7f7cI+Lb6c7+Z8Wo7s7+dVgEgHW0HEuAAIEyBASA/H1Id/a/MsaVMaq9s38dFgFgHS3HEiBAoAwBASBfH+4UUy3u7L9HvmnLn0kAKL9HKiRAgMD2AgJAnmviZ2OaN8S4X57p6ppFAKirX6olQIBAEhAAhl0HZ8Tp6c7+04dNU/fZAkDd/VM9AQJ9CggAm/X9AXFaurP/vM1Ob+ssAaCtftoNAQJ9CAgA6/X58Dj8uhiXxWj6zv51WASAdbQcS4AAgTIEBIDV+nCXOGxxZ//+q53Sz1ECQD+9tlMCBNoREAB238t0Z/9zYvx8jMPaaXvenQgAeT3NRoAAgSkEBIBdKz8lvpXu7D9uikbUvIYAUHP31E6AQK8CAsCOnX9o/FG6sz/912sFAQFgBSSHECBAoDABAeBHDbn/1t/4n1xYj4ovRwAovkUKJECAwA4CAsAP/m3/uhjpzv70b/5eawoIAGuCOZwAAQIFCPQcANLd/K/YGukuf68NBQSADeGcRoAAgRkFegwA6W/5z976W396rt9roIAAMBDQ6QQIEJhBoLcA8KQwTu/gl/693yuTgACQCdI0BAgQmFCglwDwkDBNd/Y/bELbbpYSALpptY0SINCQQOsBID3Dn57lT8/0e40kIACMBGtaAgQIjCjQagC4R5ild++7PIY7+0e8gNLUAsDIwKYnQIDACAKtBYB0Z//LY1wVw539I1wwO5tSAJgI2jIECBDIKNBKAEifzLe4s/+IjD6mWkFAAFgBySEECBAoTKCFAPDEME139h9fmG035QgA3bTaRgkQaEig5gBwWvQh3dn/8Ib6UeVWBIAq26ZoAgQ6F6gxABwbPUt39p/fee+K2b4AUEwrFEKAAIGVBWoKAIfGrq6N8dwYe628QweOLiAAjE5sAQIECGQXqCEA7Be7XtzZf0B2ARMOFhAABhOagAABApMLlBwA0p39z4xxfYwjJ5ex4MoCAsDKVA4kQIBAMQKlBoBzQyjd2f/AYqQUsksBAcDFQYAAgfoESgsAPxWE6c7+M+uj7LdiAaDf3ts5AQL1CpQSAO4bhDfFuLBeyn4rFwD67b2dEyBQr8DcAeCQoEt39j8vhjv7K72OBIBKG6dsAgS6FpgrAOwb6i+L8aoYB3bdgQY2LwA00ERbIECgO4GpA0C6s//SGOnO/qO60250wwJAo421LQIEmhaYMgA8PiRvjnFC06Idbk4A6LDptkyAQPUCUwSAU0PplhiPqF7LBnYqIAC4MAgQIFCfwJgB4K7B8dYY6c7+9DPCq1EBAaDRxtoWAQJNC4wZAE4Kub9qWs/mvi8gALgQCBAgUJ+AAFBfz4qrWAAoriUKIkCAwFIBAWApkQOWCQgAy4R8nwABAuUJCADl9aS6igSA6lqmYAIECOwhALgIBgsIAIMJTUCAAIHJBQSAycnbW1AAaK+ndkSAQPsCAkD7PR59hwLA6MQWIECAQHYBASA7aX8TCgD99dyOCRCoX0AAqL+Hs+9AAJi9BQogQIDA2gICwNpkTtheQABwTRAgQKA+AQGgvp4VV7EAUFxLFESAAIGlAgLAUiIHLBMQAJYJ+T4BAgTKExAAyutJdRUJANW1TMEECBDwRkCugeECAsBwQzMQIEBgagG/AZhavMH1BIAGm2pLBAg0LyAANN/i8TcoAIxvbAUCBAjkFhAAcot2OJ8A0GHTbZkAgeoFBIDqWzj/BgSA+XugAgIECKwrIACsK+b4HQQEABcFAQIE6hMQAOrrWXEVCwDFtURBBAgQWCogACwlcsAyAQFgmZDvEyBAoDwBAaC8nlRXkQBQXcsUTIAAAW8E5BoYLiAADDc0AwECBKYW8BuAqcUbXE8AaLCptkSAQPMCAkDzLR5/gwLA+MZWIECAQG4BASC3aIfzCQAdNt2WCRCoXkAAqL6F829AAJi/ByogQIDAugICwLpijt9BQABwURAgQKA+AQGgvp4VV7EAUFxLFESAAIGlAgLAUiIHLBMQAJYJ+T4BAgTKExAAyutJdRUJANW1TMEECBDwRkCugeECAsBwQzMQIEBgagG/AZhavMH1BIAGm2pLBAg0LyAANN/i8TcoAIxvbAUCBAjkFhAAcot2OJ8A0GHTbZkAgeoFBIDqWzj/BgSA+XugAgIECKwrIACsK+b4HQQEABcFAQIE6hMQAOrrWXEVCwDFtURBBAgQWCogACwlcsAyAQFgmZDvEyBAoDwBAaC8nlRXkQBQXcsUTIAAAW8E5BoYLiAADDc0AwECBKYW8BuAqcUbXE8AaLCptkSAQPMCAkDzLR5/gwLA+MZWIECAQG4BASC3aIfzCQAdNt2WCRCoXkAAqL6F829AAJi/ByogQIDAugICwLpijt9BQABwURAgQKA+AQGgvp4VV7EAUFxLFESAAIGlAgLAUiIHLBMQAJYJ+T4BAgTKExAAyutJdRUJANW1TMEECBDwRkCugeECAsBwQzMQIEBgagG/AZhavMH1BIAGm2pLBAg0LyAANN/i8TcoAIxvbAUCBAjkFhAAcot2OJ8A0GHTbZkAgeoFBIDqWzj/BgSA+XugAgIECKwrIACsK+b4HQQEABcFAQIE6hMQAOrrWXEVCwDFtURBBAgQWCogACwlcsAyAQFgmZDvEyBAoDwBAaC8nlRXkQBQXcsUTIAAAW8E5BoYLiAADDc0AwECBKYW8BuAqcUbXE8AaLCptkSAQPMCAkDzLR5/gwLA+MZWIECAQG4BASC3aIfzCQAdNt2WCRCoXkAAqL6F829AAJi/ByogQIDAugICwLpijt9BQABwURAgQKA+AQGgvp4VV7EAUFxLFESAAIGlAgLAUiIHLBMQAJYJ+T4BAgTKExAAyutJdRUJANW1TMEECBDwRkCugeECAsBwQzMQIEBgagG/AZhavMH1BIAGm2pLBAg0LyAANN/i8TcoAIxvbAUCBAjkFhAAcot2OJ8A0GHTbZkAgeoFBIDqWzj/BgSA+XugAgIECKwrIACsK+b4HQQEABcFAQIE6hMQAOrrWXEVCwDFtURBBAgQWCogACwlcsAyAQFgmZDvEyBAoDwBAaC8nlRXkQBQXcsUTIAAAW8E5BoYLiAADDc0AwECBKYW8BuAqcUbXE8AaLCptkSAQPMCAkDzLR5/gwLA+MZWIECAQG4BASC3aIfzCQAdNt2WCRCoXkAAqL6F829AAJi/ByogQIDAugICwLpijt9BQABwURAgQKA+AQGgvp4VV7EAUFxLFESAAIGlAgLAUiIHLBMQAJYJ+T4BAgTKExAAyutJdRUJANW1TMEECBDwRkCugeECAsBwQzMQIEBgagG/AZhavMH1BIAGm2pLBAg0LyAANN/i8TcoAIxvbAUCBAjkFhAAcot2OJ8A0GHTbZkAgeoFBIDqWzj/BgSA+XugAgIECKwrIACsK+b4HQQEABcFAQIE6hMQAOrrWXEVCwDFtURBBAgQWCogACwlcsAyAQFgmZDvEyBAoDwBAaC8nlRXkQBQXcsUTIAAAW8E5BoYLiAADDc0AwECBKYW8BuAqcUbXE8AaLCptkSAQPMCYwaAu4Xeu2I8pnnFzjcoAHR+Adg+AQJVCowZABYgj4wvbo1xcpVCil4qIAAsJXIAAQIEihOYIgCkTaefEU+N8foY9ylOQUGDBASAQXxOJkCAwCwCUwWAxeb2ji9eGOPnYqR/IvBqQEAAaKCJtkCAQHcCUweABfBBWyHgRfHffbpTb2zDAkBjDbUdAgS6EJgrACxw7x1fpH8WeFqMPbsQb3CTAkCDTbUlAgSaF5g7ACyAT4ovbo7x6ObFG9ygANBgU22JAIHmBUoJAAvon4kvbomRAoFXJQICQCWNUiYBAgS2ESgtAKTS0s+Tp8dI/zSQ/onAq3ABAaDwBimPAAECOxEoMQAsykxPDKSbBNMTAwfrXrkCAkC5vVEZAQIEdiVQcgBY1Jx++L82Rnp8MIUCr8IEBIDCGqIcAgQIrCBQQwBYbOPo+GLxxED6meNViIAAUEgjlEGAAIE1BGoKAIttpbcUTjcKPmqNfTp0RAEBYERcUxMgQGAkgRoDwIIifchQenTwwSPZmHZFAQFgRSiHESBAoCCBmgNAYkxvHrR4YuBeBbl2VYoA0FW7bZYAgUYEag8AizaktxN+cYzXxEhvM+w1oYAAMCG2pQgQIJBJoJUAsOBIHzC0eGLgzpmMTLNEQABwiRAgQKA+gdYCwKID94kvboxxcQxPDIx8XQoAIwObngABAiMItBoAFlQ/EV+kJwYeOYKdKbcEBACXAgECBOoTaD0ALDry2K0gcGJ9LSq/YgGg/B6pkAABAtsL9BIA0r7TEwOXxLghxj1dCvkEBIB8lmYiQIDAVAI9BYCFaXpi4CUx0hMDd50KuuV1BICWu2tvBAi0KtBjAFj08u7xxdUxrojhiYEBV7gAMADPqQQIEJhJoOcAsCBPBjfFuCiGJwY2uBAFgA3QnEKAAIGZBQSAHzXglPgyPTFw9sw9qW55AaC6limYAAECewgAO14E58Qfpc8YeJDrYzUBAWA1J0cRIECgJAEBYOfdSE8MXBrjdTGOKqlhJdYiAJTYFTURIEBg9wICwO599o1vvzTGq2Mc6GLauYAA4MogQIBAfQICwGo9OyQOuybG82J4YmA7MwFgtYvIUQQIEChJQABYrxvHxOHpiYELY3hiYMtOAFjvInI0AQIEShAQADbrwqlx2q0xztrs9LbOEgDa6qfdECDQh4AAMKzPT4jT3xjjhGHT1H22AFB3/1RPgECfAgLA8L7fMaa4NEZ6YuDI4dPVN4MAUF/PVEyAAAEBIN81sF9M9bIYV8Xo6okBASDfRWQmAgQITCUgAOSXPjSmXDwxsFf+6cubUQAorycqIkCAwDIBAWCZ0ObfPzZOTU8MXLD5FHWcKQDU0SdVEiBAYFsBAWD86+G0WCJ9xsCZ4y81zwoCwDzuViVAgMAQAQFgiN56554bh6cnBh643mnlHy0AlN8jFRIgQGB7AQFg2msiPTHwrBjXxzhi2qXHW00AGM/WzAQIEBhLQAAYS3b386YnBl4eIz0xcMA8JeRbVQDIZ2kmAgQITCUgAEwlvfN17hF/fG2My2NU+8SAADDvRWR1AgQIbCIgAGyilv+c+8WU6YmB8/NPPf6MAsD4xlYgQIBAbgEBILfosPlOj9PTZwycMWyaac8WAKb1thoBAgRyCAgAORTzz3FeTJmeGHhA/qnzzygA5Dc1IwECBMYWEADGFt58/vTEwLNjpCcGDt98mvHPFADGN7YCAQIEcgsIALlF88+3f0x5ZYxXxrhL/umHzygADDc0AwECBKYWEACmFt98vfTEwHUxnhPjTptPk/9MASC/qRkJECAwtoAAMLZw/vmPiynfEOMp+afebEYBYDM3ZxEgQGBOAQFgTv1haz8kTk9PDDxs2DTDzxYAhhuagQABAlMLCABTi+df70kxZXpi4P75p15tRgFgNSdHESBAoCQBAaCkbmxeS7on4LIY18U4bPNpNjtTANjMzVkECBCYU0AAmFM//9rpKYFXxEhPDUz2xIAAkL+RZiRAgMDYAgLA2MLzzJ9+C5B+G5B+KzD6EwMCwDxNtioBAgSGCAgAQ/TKPzfdF5DuD0j3CYz2EgBGozUxAQIERhMQAEajLWri9KRAemIgPTmQ/SUAZCc1IQECBEYXEABGJy5qgfTeAek9BNJ7CWR7CQDZKE1EgACByQQEgMmoi1ko3RNweYyfj5HeXXDwSwAYTGgCAgQITC4gAExOXsyC6SmB9PkC6YmB9HkDG78EgI3pnEiAAIHZBASA2eiLWTh90mD6xMH0yYPpEwjXfgkAa5M5gQABArMLCACzt6CYAh4QlaQnBs5btyIBYF0xxxMgQGB+AQFg/h6UVsEZUVB6YuD0VQsTAFaVchwBAgTKERAAyulFaZWcHwXdFON+ywoTAJYJ+T4BAgTKExAAyutJSRXtFcUsnhg4dFeFCQAltUwtBAgQWE1AAFjNqfejDgiAq2K8PMZ+22MIAL1fHvZPgECNAgJAjV2br+YjYun0xMCzYvzwiQEBYL6GWJkAAQKbCggAm8r1fd4DY/vpiYFzE4MA0PfFYPcECNQpIADU2bdSqj4zCrlVACilHeogQIDA6gICwOpWjtyFQAoAt239JgASAQIECNQhcHSU+cU6SlVlqQIpAHw1xi4fEyi1cHURIECgY4F0R/f/drx/W88gkALAp2I8OMNcpiBAgACB8QW+EUvcbfxlrNC6QAoAH4rxuNY3an8ECBBoRODTsY8TG9mLbcwokALA22KkZwO9CBAgQKB8gY9EiY8tv0wVli6QAsANMa4uvVD1ESBAgMD3Bd7hL22uhBwCKQA8P8ZbckxmDgIECBAYXeD1scI1o69igeYFUgBInyH83uZ3aoMECBBoQ+B5sY23trEVu5hTIAWAQ2L8W4wfviXfONcAAAkmSURBVD/wnAVZmwABAgR2K5DezvWzjAgMFUgBIL0+HuOsoZM5nwABAgRGFfiHmP24UVcweTcCiwDwktjxL3WzaxslQIBAnQK3Rtnp4129CAwWWASA9LaSXxg8mwkIECBAYEyBM2LyPx1zAXP3I7AIAGnHfxnj5H62bqcECBCoSiC9bXv6XPf0+S1eBAYLbBsAro3Zrh88owkIECBAYAyB9KZtl40xsTn7FNg2ANw/CD4TY88+KeyaAAECRQs8Oqr7/aIrVFxVAtsGgFT4r8e4pKodKJYAAQLtC/xRbPER7W/TDqcU2D4A3DsW/1yMvacswloECBAgsFuB0+O7f86IQE6B7QNAmjs9ZvKKnIuYiwABAgQ2FvjdOPOCjc92IoFdCOwsAKTPmf58jIOoESBAgMCsAt+J1U+IkX4z60Ugq8DOAkBaIL3RxM1ZVzIZAQIECKwr8CtxwhXrnuR4AqsI7CoA7BMn/22MY1eZxDEECBAgkF3gP7b+9v+V7DObkEAI7CoAJJzjY3wixoGkCBAgQGBSgW/Haumxv49PuqrFuhLYXQBIEI+L8cEY3hugq8vCZgkQmFnAR/7O3IAell8WAJLBlTF+oQcMeyRAgEABAr8cNbyogDqU0LjAKgEgEbwjxqWNW9geAQIE5hb4aBSQfvOa7v73IjCqwKoB4M5RRbowHz5qNSYnQIBAvwJ/F1t/aIxv9Etg51MKrBoAUk37bv0m4KIpC7QWAQIEOhD4w9jj+TG+3sFebbEQgXUCwKLkq+OL18XY5NxCtq0MAgQIFCPwq1FJ+jd/v/YvpiV9FLLpD/GnBM87Y+zfB5NdEiBAILtA+oH/0hhvzj6zCQmsILBpAEhTPzjG+2OkDxDyIkCAAIHVBdK/86f39//Y6qc4kkBegSEBIFVy9xjXxkjPrKYbBb0IECBAYNcCt8W3fiNG+qfUfwZFYE6BoQFgUfsx8cWNMdINgrnmnNPF2gQIEMgt8OGY8FUx/ib3xOYjsIlA7h/Wp0QRt8Q4e5NinEOAAIEGBT4Ze0ofsJbu9PciUIxA7gCw2Nhj4otLYpwTw8cKF9NuhRAgMJHAN2Odj8T4zRjvifG9ida1DIGVBcYKAIsC9oovzoxxXownxjh65cocSIAAgboE0qf2fSDG+2KkN077Vl3lq7Y3gbEDwPaeJ8UfpE+4SkHgqK1xZPz3sBh37A3ffgkQqE4g/U3+azH+dZuRbuZLv95Pn56abvLzIlCFwNQBYFco6Yf/4Vsj/dbAiwABAiUJfDeKSX/D/3KM9FG9XgSqFyglAFQPaQMECBAgQKAmAQGgpm6plQABAgQIZBIQADJBmoYAAQIECNQkIADU1C21EiBAgACBTAICQCZI0xAgQIAAgZoEBICauqVWAgQIECCQSUAAyARpGgIECBAgUJOAAFBTt9RKgAABAgQyCQgAmSBNQ4AAAQIEahIQAGrqlloJECBAgEAmAQEgE6RpCBAgQIBATQICQE3dUisBAgQIEMgkIABkgjQNAQIECBCoSUAAqKlbaiVAgAABApkEBIBMkKYhQIAAAQI1CQgANXVLrQQIECBAIJOAAJAJ0jQECBAgQKAmAQGgpm6plQABAgQIZBIQADJBmoYAAQIECNQkIADU1C21EiBAgACBTAICQCZI0xAgQIAAgZoEBICauqVWAgQIECCQSUAAyARpGgIECBAgUJOAAFBTt9RKgAABAgQyCQgAmSBNQ4AAAQIEahIQAGrqlloJECBAgEAmAQEgE6RpCBAgQIBATQICQE3dUisBAgQIEMgkIABkgjQNAQIECBCoSUAAqKlbaiVAgAABApkEBIBMkKYhQIAAAQI1CQgANXVLrQQIECBAIJOAAJAJ0jQECBAgQKAmAQGgpm6plQABAgQIZBIQADJBmoYAAQIECNQkIADU1C21EiBAgACBTAICQCZI0xAgQIAAgZoEBICauqVWAgQIECCQSUAAyARpGgIECBAgUJOAAFBTt9RKgAABAgQyCQgAmSBNQ4AAAQIEahIQAGrqlloJECBAgEAmAQEgE6RpCBAgQIBATQICQE3dUisBAgQIEMgkIABkgjQNAQIECBCoSUAAqKlbaiVAgAABApkEBIBMkKYhQIAAAQI1CQgANXVLrQQIECBAIJOAAJAJ0jQECBAgQKAmAQGgpm6plQABAgQIZBIQADJBmoYAAQIECNQkIADU1C21EiBAgACBTAICQCZI0xAgQIAAgZoEBICauqVWAgQIECCQSUAAyARpGgIECBAgUJOAAFBTt9RKgAABAgQyCQgAmSBNQ4AAAQIEahIQAGrqlloJECBAgEAmAQEgE6RpCBAgQIBATQICQE3dUisBAgQIEMgkIABkgjQNAQIECBCoSUAAqKlbaiVAgAABApkEBIBMkKYhQIAAAQI1CQgANXVLrQQIECBAIJOAAJAJ0jQECBAgQKAmAQGgpm6plQABAgQIZBIQADJBmoYAAQIECNQkIADU1C21EiBAgACBTAICQCZI0xAgQIAAgZoEBICauqVWAgQIECCQSUAAyARpGgIECBAgUJOAAFBTt9RKgAABAgQyCQgAmSBNQ4AAAQIEahIQAGrqlloJECBAgEAmAQEgE6RpCBAgQIBATQICQE3dUisBAgQIEMgkIABkgjQNAQIECBCoSUAAqKlbaiVAgAABApkEBIBMkKYhQIAAAQI1CQgANXVLrQQIECBAIJOAAJAJ0jQECBAgQKAmAQGgpm6plQABAgQIZBIQADJBmoYAAQIECNQkIADU1C21EiBAgACBTAICQCZI0xAgQIAAgZoEBICauqVWAgQIECCQSUAAyARpGgIECBAgUJOAAFBTt9RKgAABAgQyCQgAmSBNQ4AAAQIEahIQAGrqlloJECBAgEAmAQEgE6RpCBAgQIBATQICQE3dUisBAgQIEMgkIABkgjQNAQIECBCoSUAAqKlbaiVAgAABApkEBIBMkKYhQIAAAQI1CQgANXVLrQQIECBAIJOAAJAJ0jQECBAgQKAmAQGgpm6plQABAgQIZBIQADJBmoYAAQIECNQkIADU1C21EiBAgACBTAICQCZI0xAgQIAAgZoEBICauqVWAgQIECCQSUAAyARpGgIECBAgUJPA/wNJCYfNzRP3mAAAAABJRU5ErkJggg==;" vertex="1" parent="1">
          <mxGeometry x="69" y="60" width="50" height="50" as="geometry" />
        </mxCell>
        <mxCell id="FDqJe7q0dYofpkMNyn92-2" value="" style="shape=image;verticalLabelPosition=bottom;labelBackgroundColor=default;verticalAlign=top;aspect=fixed;imageAspect=0;image=data:image/png,iVBORw0KGgoAAAANSUhEUgAAAgAAAAIACAYAAAD0eNT6AAAgAElEQVR4Xu3de7B2VV0HcESRmyAoyE3FEFFEEgoCFUHSvKCIGpfBC4OKqHgXRU0gEEGBcvojLadRJ6dsahrvOTppWVONTU5ZOVqWjWOlqaVNk+WkYr+l59GX9/Zc9tp7r8vnmVnD4T17r/Vbn9+eOd/3vHs/zx328CJAgAABAgS6E7hDdzu2YQIECBAgQGAPAcBFQIAAAQIEOhQQADpsui0TIECAAAEBwDVAgAABAgQ6FBAAOmy6LRMgQIAAAQHANUCAAAECBDoUEAA6bLotEyBAgAABAcA1QIAAAQIEOhQQADpsui0TIECAAAEBwDVAgAABAgQ6FBAAOmy6LRMgQIAAAQHANUCAAAECBDoUEAA6bLotEyBAgAABAcA1QIAAAQIEOhQQADpsui0TIECAAAEBwDVAgAABAgQ6FBAAOmy6LRMgQIAAAQHANUCAAAECBDoUEAA6bLotEyBAgAABAcA1QIAAAQIEOhQQADpsui0TIECAAAEBwDVAgAABAgQ6FBAAOmy6LRMgQIAAAQHANUCAAAECBDoUEAA6bLotEyBAgAABAcA1QIAAAQIEOhQQADpsui0TIECAAAEBwDVAgAABAgQ6FBAAOmy6LRMgQIAAAQHANUCAAAECBDoUEAA6bLotEyBAgAABAcA1QIAAAQIEOhQQADpsui0TIECAAAEBwDVAgAABAgQ6FBAAOmy6LRMgQIAAAQHANUCAAAECBDoUEAA6bLotEyBAgAABAcA1QIAAAQIEOhQQADpsui0TIECAAAEBwDVAgAABAgQ6FBAAOmy6LRMgQIAAAQHANUCAAAECBDoUEAA6bLotEyBAgAABAcA1QIAAAQIEOhQQADpsui0TIECAAAEBwDVAgAABAgQ6FBAAOmy6LRMgQIAAAQHANUCAAAECBDoUEAA6bLotEyBAgAABAcA1QIAAAQIEOhQQADpsui0TIECAAAEBwDVAgAABAgQ6FBAAOmy6LRMgQIAAAQHANUCAAAECBDoUEAA6bLotEyBAgAABAcA1QIAAAQIEOhQQADpsui0TIECAAAEBwDVAgAABAgQ6FBAAOmy6LRMgQIAAAQHANUCAAAECBDoUEAA6bLotEyBAgAABAcA1QIAAAQIEOhQQADpsui0TIECAAAEBwDVAgAABAgQ6FBAAOmy6LRMgQIAAAQHANUCAAAECBDoUEAA6bLotEyBAgAABAcA1QIAAAQIEOhQQADpsui0TIECAAAEBwDVAgAABAgQ6FBAAOmy6LRMgQIAAAQHANUCAAAECBDoUEAA6bLotEyBAgAABAcA1QIAAAQIEOhQQADpsui0TIECAAAEBwDVAgAABAgQ6FBAAOmy6LRMgQIAAAQHANUCAAAECBDoUEAA6bLotEyBAgAABAcA1QIAAAQIEOhQQADpsui0TIECAAAEBwDVAgAABAgQ6FBAAOmy6LRMgQIAAAQHANUCAAAECBDoUEAA6bLotEyBAgAABAcA1QIAAAQIEOhQQADpsui0TIECAAAEBwDVAgAABAgQ6FBAAOmy6LRMgQIAAAQHANUCAAAECBDoUEAA6bLotEyBAgAABAcA1QIAAAQIEOhQQADpsui0TIECAAAEBwDVAgAABAgQ6FBAAOmy6LRMgQIAAAQHANUCAAAECBDoUEAA6bLotEyBAgAABAcA1QIAAAQIEOhQQADpsui0TIECAAAEBwDVAgAABAgQ6FBAAOmy6LRMgQIAAAQHANUCAAAECBDoUmCMAHBfO945xRIwjt8bi68Pi//fqsA+2TIBA2QLfjfK+GuPLMb60NRZf/0v8/2difK/sLaiOwO0FpggAd4olz4xx3tY4WhMIECDQmMBXYj/vj/G+GB+L8a3G9mc7DQqMFQD2D6tztn7gp/8e3KCdLREgQGBnAt+MP/zwVhj4QPz3PzERKFEgdwBIv75/foxrYhxS4obVRIAAgQkF/ivWujXGm2L8z4TrWorAUoFcASDNc2GMm2Ics3RVBxAgQKAvgXS/wPUx3hbjO31t3W5LFcgRAM6Ozd0S45RSN6kuAgQIFCLw91HHa2K8p5B6lNGxwJAAsG+4/VqMp3XsZ+sECBDYROCjcdJFMb6+ycnOIZBDYNMAkB7fS3e7+lt/ji6YgwCBHgU+H5s+N8Zne9y8Pc8vsEkAODXKfm+MFAK8CBAgQGBzgXST4MUxPrT5FM4ksJnAugEgXahvj7HPZss5iwABAgS2E7gt/v+qGL9IhsCUAusEgKujsBumLM5aBAgQ6Egg3VN1eUf7tdWZBVYNAM+IOt85c62WJ0CAQOsC1/qLVustLmd/qwSA06Pcj8fYu5yyVUKAAIEmBdLnCZwf491N7s6mihJYFgDuGdX+RYzDi6paMQQIEGhXIL2V8BkxPtXuFu2sBIHdBYD9osA/iXFyCYWqgQABAh0JfDH2mp64Sp9A6EVgFIHdBYDfiRUvGGVVkxIgQIDAMoE/iwMeEePbyw70fQKbCOwqADw+JvvgJhM6hwABAgSyCbwwZnpzttlMRGAbgZ0FgD3j+38d40GkCBAgQGBWgfRPAPeN8d+zVmHxJgV2FgAujZ2+o8nd2hQBAgTqE0ifInhdfWWruHSB7QNAeoe/z8W4V+mFq48AAQKdCKS//R8b4yud7Nc2JxLYPgC8MtZNH+3rRYAAAQLlCLwlSnlBOeWopAWBbQPAQbGhf4pxcAsbswcCBAg0JPCd2MvxMf6xoT3ZyswC2waAy6KW9F7UXgQIECBQnsCNUVL6TBYvAlkEtg0AvxcznpNlVpMQIECAQG6BT8eEJ+ae1Hz9CiwCwAFB8LUY3u+/32vBzgkQKF8gPRKY/qnWi8BggUUAuDBm+u3Bs5mAAAECBMYUuDImf9OYC5i7H4FFAHhXbPnifrZtpwQIEKhS4I+j6rOqrFzRxQmkAHDnGOnX/wcWV52CCBAgQGBbge/G/6RPZ/13LASGCqQAcHaMPxg6kfMJECBAYBKBp8YqvzXJShZpWiAFgGfGeHvTu7Q5AgQItCPw2tjKTe1sx07mEkgBIF1Mr5+rAOsSIECAwFoC3hVwLS4H70ogBYD0UZNXICJAgACBKgTeF1U+qYpKFVm0QAoA747x5KKrVBwBAgQILAQ+GV+cioPAUIEUAD4R47ShEzmfAAECBCYR+HKscuQkK1mkaYEUAL4Yw8f/Nt1mmyNAoCGB22Iv6fHt9EigF4GNBVIA+L8Ye208gxMJECBAYGqBo2LBL029qPXaEkgB4HttbcluCBAg0LzAj8UOv9D8Lm1wVAEBYFRekxMgQGAUAQFgFNa+JhUA+uq33RIg0IaAANBGH+faxUmx8C0CwFz81iVAgMDmAgLA5nY9n3nv2Hx647+nx7iDANDzpWDvBAjUKiAA1Nq5eeo+OJZ9TYwXx9h7UYIAME8zrEqAAIEhAgLAEL1+zk0/7F8YI73lfwoBt3sJAP1cCHZKgEA7AgJAO70cYyfpZ3v61MgbYxy9qwUEgDHozUmAAIFxBQSAcX1rnv1RUfwtMU5etgkBYJmQ7xMgQKA8AQGgvJ7MXdGPb/3gf8yqhQgAq0o5jgABAuUICADl9GLuStJb+d8Q4xkx9lynGAFgHS3HEiBAoAwBAaCMPsxZxUGx+OLO/n02KUQA2ETNOQQIEJhXQACY13/O1dMHQb0gxtUx7jakEAFgiJ5zCRAgMI+AADCP+5yrpp/XF8dId/bfJ0chAkAORXMQIEBgWgEBYFrvuVf76Sgg3dn/kzkLEQByapqLAAEC0wgIANM4z73KiVHAzTEeN0YhAsAYquYkQIDAuAICwLi+c89+zygg3dl/SYy17uxfp3ABYB0txxIgQKAMAQGgjD7kruKuMeGrY7wkxr65J99+PgFgbGHzEyBAIL+AAJDfdM4Z0539V8RId/bffapCBICppK1DgACBfAICQD7LOWdKP4MvipHu7D9m6kIEgKnFrUeAAIHhAgLAcMO5Zzg7Ckh39p8yVyECwFzy1iVAgMDmAgLA5nZzn/mgKCDd2X/O3IUIAHN3wPoECBBYX0AAWN9s7jOOigJeF+PSGKPd2b/OJgWAdbQcS4AAgTIEBIAy+rBKFQfGQenO/pfGGP3O/lUKWhwjAKyj5VgCBAiUISAAlNGH3VWxV3zz+TGuiXFIieUKACV2RU0ECBDYvYAAUO4Vkn6uXhDjphj3LbfMPfYQAErujtoIECCwcwEBoMwr46wo69YYp5ZZ3u2rEgBq6JIaCRAgcHsBAaCsK+KEKOeNMZ5QVlm7r0YAqKlbaiVAgMAPBASAMq6EI6OM62M8M8Ydyyhp9SoEgNWtHEmAAIFSBASAeTtxQCz/qhgvi7HfvKVsvroAsLmdMwkQIDCXgAAwj3y6s/+5Ma6Nceg8JeRbVQDIZ2kmAgQITCUgAEwl/aN1Fnf2Hzv90uOsKACM42pWAgQIjCkgAIype/u5Hx7/m+7sP226JadZSQCYxtkqBAgQyCkgAOTU3Plcx8cfpzv7nzj+UvOsIADM425VAgQIDBEQAIbo7f7cI+Lb6c7+Z8Wo7s7+dVgEgHW0HEuAAIEyBASA/H1Id/a/MsaVMaq9s38dFgFgHS3HEiBAoAwBASBfH+4UUy3u7L9HvmnLn0kAKL9HKiRAgMD2AgJAnmviZ2OaN8S4X57p6ppFAKirX6olQIBAEhAAhl0HZ8Tp6c7+04dNU/fZAkDd/VM9AQJ9CggAm/X9AXFaurP/vM1Ob+ssAaCtftoNAQJ9CAgA6/X58Dj8uhiXxWj6zv51WASAdbQcS4AAgTIEBIDV+nCXOGxxZ//+q53Sz1ECQD+9tlMCBNoREAB238t0Z/9zYvx8jMPaaXvenQgAeT3NRoAAgSkEBIBdKz8lvpXu7D9uikbUvIYAUHP31E6AQK8CAsCOnX9o/FG6sz/912sFAQFgBSSHECBAoDABAeBHDbn/1t/4n1xYj4ovRwAovkUKJECAwA4CAsAP/m3/uhjpzv70b/5eawoIAGuCOZwAAQIFCPQcANLd/K/YGukuf68NBQSADeGcRoAAgRkFegwA6W/5z976W396rt9roIAAMBDQ6QQIEJhBoLcA8KQwTu/gl/693yuTgACQCdI0BAgQmFCglwDwkDBNd/Y/bELbbpYSALpptY0SINCQQOsBID3Dn57lT8/0e40kIACMBGtaAgQIjCjQagC4R5ild++7PIY7+0e8gNLUAsDIwKYnQIDACAKtBYB0Z//LY1wVw539I1wwO5tSAJgI2jIECBDIKNBKAEifzLe4s/+IjD6mWkFAAFgBySEECBAoTKCFAPDEME139h9fmG035QgA3bTaRgkQaEig5gBwWvQh3dn/8Ib6UeVWBIAq26ZoAgQ6F6gxABwbPUt39p/fee+K2b4AUEwrFEKAAIGVBWoKAIfGrq6N8dwYe628QweOLiAAjE5sAQIECGQXqCEA7Be7XtzZf0B2ARMOFhAABhOagAABApMLlBwA0p39z4xxfYwjJ5ex4MoCAsDKVA4kQIBAMQKlBoBzQyjd2f/AYqQUsksBAcDFQYAAgfoESgsAPxWE6c7+M+uj7LdiAaDf3ts5AQL1CpQSAO4bhDfFuLBeyn4rFwD67b2dEyBQr8DcAeCQoEt39j8vhjv7K72OBIBKG6dsAgS6FpgrAOwb6i+L8aoYB3bdgQY2LwA00ERbIECgO4GpA0C6s//SGOnO/qO60250wwJAo421LQIEmhaYMgA8PiRvjnFC06Idbk4A6LDptkyAQPUCUwSAU0PplhiPqF7LBnYqIAC4MAgQIFCfwJgB4K7B8dYY6c7+9DPCq1EBAaDRxtoWAQJNC4wZAE4Kub9qWs/mvi8gALgQCBAgUJ+AAFBfz4qrWAAoriUKIkCAwFIBAWApkQOWCQgAy4R8nwABAuUJCADl9aS6igSA6lqmYAIECOwhALgIBgsIAIMJTUCAAIHJBQSAycnbW1AAaK+ndkSAQPsCAkD7PR59hwLA6MQWIECAQHYBASA7aX8TCgD99dyOCRCoX0AAqL+Hs+9AAJi9BQogQIDA2gICwNpkTtheQABwTRAgQKA+AQGgvp4VV7EAUFxLFESAAIGlAgLAUiIHLBMQAJYJ+T4BAgTKExAAyutJdRUJANW1TMEECBDwRkCugeECAsBwQzMQIEBgagG/AZhavMH1BIAGm2pLBAg0LyAANN/i8TcoAIxvbAUCBAjkFhAAcot2OJ8A0GHTbZkAgeoFBIDqWzj/BgSA+XugAgIECKwrIACsK+b4HQQEABcFAQIE6hMQAOrrWXEVCwDFtURBBAgQWCogACwlcsAyAQFgmZDvEyBAoDwBAaC8nlRXkQBQXcsUTIAAAW8E5BoYLiAADDc0AwECBKYW8BuAqcUbXE8AaLCptkSAQPMCAkDzLR5/gwLA+MZWIECAQG4BASC3aIfzCQAdNt2WCRCoXkAAqL6F829AAJi/ByogQIDAugICwLpijt9BQABwURAgQKA+AQGgvp4VV7EAUFxLFESAAIGlAgLAUiIHLBMQAJYJ+T4BAgTKExAAyutJdRUJANW1TMEECBDwRkCugeECAsBwQzMQIEBgagG/AZhavMH1BIAGm2pLBAg0LyAANN/i8TcoAIxvbAUCBAjkFhAAcot2OJ8A0GHTbZkAgeoFBIDqWzj/BgSA+XugAgIECKwrIACsK+b4HQQEABcFAQIE6hMQAOrrWXEVCwDFtURBBAgQWCogACwlcsAyAQFgmZDvEyBAoDwBAaC8nlRXkQBQXcsUTIAAAW8E5BoYLiAADDc0AwECBKYW8BuAqcUbXE8AaLCptkSAQPMCAkDzLR5/gwLA+MZWIECAQG4BASC3aIfzCQAdNt2WCRCoXkAAqL6F829AAJi/ByogQIDAugICwLpijt9BQABwURAgQKA+AQGgvp4VV7EAUFxLFESAAIGlAgLAUiIHLBMQAJYJ+T4BAgTKExAAyutJdRUJANW1TMEECBDwRkCugeECAsBwQzMQIEBgagG/AZhavMH1BIAGm2pLBAg0LyAANN/i8TcoAIxvbAUCBAjkFhAAcot2OJ8A0GHTbZkAgeoFBIDqWzj/BgSA+XugAgIECKwrIACsK+b4HQQEABcFAQIE6hMQAOrrWXEVCwDFtURBBAgQWCogACwlcsAyAQFgmZDvEyBAoDwBAaC8nlRXkQBQXcsUTIAAAW8E5BoYLiAADDc0AwECBKYW8BuAqcUbXE8AaLCptkSAQPMCAkDzLR5/gwLA+MZWIECAQG4BASC3aIfzCQAdNt2WCRCoXkAAqL6F829AAJi/ByogQIDAugICwLpijt9BQABwURAgQKA+AQGgvp4VV7EAUFxLFESAAIGlAgLAUiIHLBMQAJYJ+T4BAgTKExAAyutJdRUJANW1TMEECBDwRkCugeECAsBwQzMQIEBgagG/AZhavMH1BIAGm2pLBAg0LyAANN/i8TcoAIxvbAUCBAjkFhAAcot2OJ8A0GHTbZkAgeoFBIDqWzj/BgSA+XugAgIECKwrIACsK+b4HQQEABcFAQIE6hMQAOrrWXEVCwDFtURBBAgQWCogACwlcsAyAQFgmZDvEyBAoDwBAaC8nlRXkQBQXcsUTIAAAW8E5BoYLiAADDc0AwECBKYW8BuAqcUbXE8AaLCptkSAQPMCAkDzLR5/gwLA+MZWIECAQG4BASC3aIfzCQAdNt2WCRCoXkAAqL6F829AAJi/ByogQIDAugICwLpijt9BQABwURAgQKA+AQGgvp4VV7EAUFxLFESAAIGlAgLAUiIHLBMQAJYJ+T4BAgTKExAAyutJdRUJANW1TMEECBDwRkCugeECAsBwQzMQIEBgagG/AZhavMH1BIAGm2pLBAg0LyAANN/i8TcoAIxvbAUCBAjkFhAAcot2OJ8A0GHTbZkAgeoFBIDqWzj/BgSA+XugAgIECKwrIACsK+b4HQQEABcFAQIE6hMQAOrrWXEVCwDFtURBBAgQWCogACwlcsAyAQFgmZDvEyBAoDwBAaC8nlRXkQBQXcsUTIAAAW8E5BoYLiAADDc0AwECBKYW8BuAqcUbXE8AaLCptkSAQPMCYwaAu4Xeu2I8pnnFzjcoAHR+Adg+AQJVCowZABYgj4wvbo1xcpVCil4qIAAsJXIAAQIEihOYIgCkTaefEU+N8foY9ylOQUGDBASAQXxOJkCAwCwCUwWAxeb2ji9eGOPnYqR/IvBqQEAAaKCJtkCAQHcCUweABfBBWyHgRfHffbpTb2zDAkBjDbUdAgS6EJgrACxw7x1fpH8WeFqMPbsQb3CTAkCDTbUlAgSaF5g7ACyAT4ovbo7x6ObFG9ygANBgU22JAIHmBUoJAAvon4kvbomRAoFXJQICQCWNUiYBAgS2ESgtAKTS0s+Tp8dI/zSQ/onAq3ABAaDwBimPAAECOxEoMQAsykxPDKSbBNMTAwfrXrkCAkC5vVEZAQIEdiVQcgBY1Jx++L82Rnp8MIUCr8IEBIDCGqIcAgQIrCBQQwBYbOPo+GLxxED6meNViIAAUEgjlEGAAIE1BGoKAIttpbcUTjcKPmqNfTp0RAEBYERcUxMgQGAkgRoDwIIifchQenTwwSPZmHZFAQFgRSiHESBAoCCBmgNAYkxvHrR4YuBeBbl2VYoA0FW7bZYAgUYEag8AizaktxN+cYzXxEhvM+w1oYAAMCG2pQgQIJBJoJUAsOBIHzC0eGLgzpmMTLNEQABwiRAgQKA+gdYCwKID94kvboxxcQxPDIx8XQoAIwObngABAiMItBoAFlQ/EV+kJwYeOYKdKbcEBACXAgECBOoTaD0ALDry2K0gcGJ9LSq/YgGg/B6pkAABAtsL9BIA0r7TEwOXxLghxj1dCvkEBIB8lmYiQIDAVAI9BYCFaXpi4CUx0hMDd50KuuV1BICWu2tvBAi0KtBjAFj08u7xxdUxrojhiYEBV7gAMADPqQQIEJhJoOcAsCBPBjfFuCiGJwY2uBAFgA3QnEKAAIGZBQSAHzXglPgyPTFw9sw9qW55AaC6limYAAECewgAO14E58Qfpc8YeJDrYzUBAWA1J0cRIECgJAEBYOfdSE8MXBrjdTGOKqlhJdYiAJTYFTURIEBg9wICwO599o1vvzTGq2Mc6GLauYAA4MogQIBAfQICwGo9OyQOuybG82J4YmA7MwFgtYvIUQQIEChJQABYrxvHxOHpiYELY3hiYMtOAFjvInI0AQIEShAQADbrwqlx2q0xztrs9LbOEgDa6qfdECDQh4AAMKzPT4jT3xjjhGHT1H22AFB3/1RPgECfAgLA8L7fMaa4NEZ6YuDI4dPVN4MAUF/PVEyAAAEBIN81sF9M9bIYV8Xo6okBASDfRWQmAgQITCUgAOSXPjSmXDwxsFf+6cubUQAorycqIkCAwDIBAWCZ0ObfPzZOTU8MXLD5FHWcKQDU0SdVEiBAYFsBAWD86+G0WCJ9xsCZ4y81zwoCwDzuViVAgMAQAQFgiN56554bh6cnBh643mnlHy0AlN8jFRIgQGB7AQFg2msiPTHwrBjXxzhi2qXHW00AGM/WzAQIEBhLQAAYS3b386YnBl4eIz0xcMA8JeRbVQDIZ2kmAgQITCUgAEwlvfN17hF/fG2My2NU+8SAADDvRWR1AgQIbCIgAGyilv+c+8WU6YmB8/NPPf6MAsD4xlYgQIBAbgEBILfosPlOj9PTZwycMWyaac8WAKb1thoBAgRyCAgAORTzz3FeTJmeGHhA/qnzzygA5Dc1IwECBMYWEADGFt58/vTEwLNjpCcGDt98mvHPFADGN7YCAQIEcgsIALlF88+3f0x5ZYxXxrhL/umHzygADDc0AwECBKYWEACmFt98vfTEwHUxnhPjTptPk/9MASC/qRkJECAwtoAAMLZw/vmPiynfEOMp+afebEYBYDM3ZxEgQGBOAQFgTv1haz8kTk9PDDxs2DTDzxYAhhuagQABAlMLCABTi+df70kxZXpi4P75p15tRgFgNSdHESBAoCQBAaCkbmxeS7on4LIY18U4bPNpNjtTANjMzVkECBCYU0AAmFM//9rpKYFXxEhPDUz2xIAAkL+RZiRAgMDYAgLA2MLzzJ9+C5B+G5B+KzD6EwMCwDxNtioBAgSGCAgAQ/TKPzfdF5DuD0j3CYz2EgBGozUxAQIERhMQAEajLWri9KRAemIgPTmQ/SUAZCc1IQECBEYXEABGJy5qgfTeAek9BNJ7CWR7CQDZKE1EgACByQQEgMmoi1ko3RNweYyfj5HeXXDwSwAYTGgCAgQITC4gAExOXsyC6SmB9PkC6YmB9HkDG78EgI3pnEiAAIHZBASA2eiLWTh90mD6xMH0yYPpEwjXfgkAa5M5gQABArMLCACzt6CYAh4QlaQnBs5btyIBYF0xxxMgQGB+AQFg/h6UVsEZUVB6YuD0VQsTAFaVchwBAgTKERAAyulFaZWcHwXdFON+ywoTAJYJ+T4BAgTKExAAyutJSRXtFcUsnhg4dFeFCQAltUwtBAgQWE1AAFjNqfejDgiAq2K8PMZ+22MIAL1fHvZPgECNAgJAjV2br+YjYun0xMCzYvzwiQEBYL6GWJkAAQKbCggAm8r1fd4DY/vpiYFzE4MA0PfFYPcECNQpIADU2bdSqj4zCrlVACilHeogQIDA6gICwOpWjtyFQAoAt239JgASAQIECNQhcHSU+cU6SlVlqQIpAHw1xi4fEyi1cHURIECgY4F0R/f/drx/W88gkALAp2I8OMNcpiBAgACB8QW+EUvcbfxlrNC6QAoAH4rxuNY3an8ECBBoRODTsY8TG9mLbcwokALA22KkZwO9CBAgQKB8gY9EiY8tv0wVli6QAsANMa4uvVD1ESBAgMD3Bd7hL22uhBwCKQA8P8ZbckxmDgIECBAYXeD1scI1o69igeYFUgBInyH83uZ3aoMECBBoQ+B5sY23trEVu5hTIAWAQ2L8W4wfviXfONcAAAkmSURBVD/wnAVZmwABAgR2K5DezvWzjAgMFUgBIL0+HuOsoZM5nwABAgRGFfiHmP24UVcweTcCiwDwktjxL3WzaxslQIBAnQK3Rtnp4129CAwWWASA9LaSXxg8mwkIECBAYEyBM2LyPx1zAXP3I7AIAGnHfxnj5H62bqcECBCoSiC9bXv6XPf0+S1eBAYLbBsAro3Zrh88owkIECBAYAyB9KZtl40xsTn7FNg2ANw/CD4TY88+KeyaAAECRQs8Oqr7/aIrVFxVAtsGgFT4r8e4pKodKJYAAQLtC/xRbPER7W/TDqcU2D4A3DsW/1yMvacswloECBAgsFuB0+O7f86IQE6B7QNAmjs9ZvKKnIuYiwABAgQ2FvjdOPOCjc92IoFdCOwsAKTPmf58jIOoESBAgMCsAt+J1U+IkX4z60Ugq8DOAkBaIL3RxM1ZVzIZAQIECKwr8CtxwhXrnuR4AqsI7CoA7BMn/22MY1eZxDEECBAgkF3gP7b+9v+V7DObkEAI7CoAJJzjY3wixoGkCBAgQGBSgW/Haumxv49PuqrFuhLYXQBIEI+L8cEY3hugq8vCZgkQmFnAR/7O3IAell8WAJLBlTF+oQcMeyRAgEABAr8cNbyogDqU0LjAKgEgEbwjxqWNW9geAQIE5hb4aBSQfvOa7v73IjCqwKoB4M5RRbowHz5qNSYnQIBAvwJ/F1t/aIxv9Etg51MKrBoAUk37bv0m4KIpC7QWAQIEOhD4w9jj+TG+3sFebbEQgXUCwKLkq+OL18XY5NxCtq0MAgQIFCPwq1FJ+jd/v/YvpiV9FLLpD/GnBM87Y+zfB5NdEiBAILtA+oH/0hhvzj6zCQmsILBpAEhTPzjG+2OkDxDyIkCAAIHVBdK/86f39//Y6qc4kkBegSEBIFVy9xjXxkjPrKYbBb0IECBAYNcCt8W3fiNG+qfUfwZFYE6BoQFgUfsx8cWNMdINgrnmnNPF2gQIEMgt8OGY8FUx/ib3xOYjsIlA7h/Wp0QRt8Q4e5NinEOAAIEGBT4Ze0ofsJbu9PciUIxA7gCw2Nhj4otLYpwTw8cKF9NuhRAgMJHAN2Odj8T4zRjvifG9ida1DIGVBcYKAIsC9oovzoxxXownxjh65cocSIAAgboE0qf2fSDG+2KkN077Vl3lq7Y3gbEDwPaeJ8UfpE+4SkHgqK1xZPz3sBh37A3ffgkQqE4g/U3+azH+dZuRbuZLv95Pn56abvLzIlCFwNQBYFco6Yf/4Vsj/dbAiwABAiUJfDeKSX/D/3KM9FG9XgSqFyglAFQPaQMECBAgQKAmAQGgpm6plQABAgQIZBIQADJBmoYAAQIECNQkIADU1C21EiBAgACBTAICQCZI0xAgQIAAgZoEBICauqVWAgQIECCQSUAAyARpGgIECBAgUJOAAFBTt9RKgAABAgQyCQgAmSBNQ4AAAQIEahIQAGrqlloJECBAgEAmAQEgE6RpCBAgQIBATQICQE3dUisBAgQIEMgkIABkgjQNAQIECBCoSUAAqKlbaiVAgAABApkEBIBMkKYhQIAAAQI1CQgANXVLrQQIECBAIJOAAJAJ0jQECBAgQKAmAQGgpm6plQABAgQIZBIQADJBmoYAAQIECNQkIADU1C21EiBAgACBTAICQCZI0xAgQIAAgZoEBICauqVWAgQIECCQSUAAyARpGgIECBAgUJOAAFBTt9RKgAABAgQyCQgAmSBNQ4AAAQIEahIQAGrqlloJECBAgEAmAQEgE6RpCBAgQIBATQICQE3dUisBAgQIEMgkIABkgjQNAQIECBCoSUAAqKlbaiVAgAABApkEBIBMkKYhQIAAAQI1CQgANXVLrQQIECBAIJOAAJAJ0jQECBAgQKAmAQGgpm6plQABAgQIZBIQADJBmoYAAQIECNQkIADU1C21EiBAgACBTAICQCZI0xAgQIAAgZoEBICauqVWAgQIECCQSUAAyARpGgIECBAgUJOAAFBTt9RKgAABAgQyCQgAmSBNQ4AAAQIEahIQAGrqlloJECBAgEAmAQEgE6RpCBAgQIBATQICQE3dUisBAgQIEMgkIABkgjQNAQIECBCoSUAAqKlbaiVAgAABApkEBIBMkKYhQIAAAQI1CQgANXVLrQQIECBAIJOAAJAJ0jQECBAgQKAmAQGgpm6plQABAgQIZBIQADJBmoYAAQIECNQkIADU1C21EiBAgACBTAICQCZI0xAgQIAAgZoEBICauqVWAgQIECCQSUAAyARpGgIECBAgUJOAAFBTt9RKgAABAgQyCQgAmSBNQ4AAAQIEahIQAGrqlloJECBAgEAmAQEgE6RpCBAgQIBATQICQE3dUisBAgQIEMgkIABkgjQNAQIECBCoSUAAqKlbaiVAgAABApkEBIBMkKYhQIAAAQI1CQgANXVLrQQIECBAIJOAAJAJ0jQECBAgQKAmAQGgpm6plQABAgQIZBIQADJBmoYAAQIECNQkIADU1C21EiBAgACBTAICQCZI0xAgQIAAgZoEBICauqVWAgQIECCQSUAAyARpGgIECBAgUJOAAFBTt9RKgAABAgQyCQgAmSBNQ4AAAQIEahIQAGrqlloJECBAgEAmAQEgE6RpCBAgQIBATQICQE3dUisBAgQIEMgkIABkgjQNAQIECBCoSUAAqKlbaiVAgAABApkEBIBMkKYhQIAAAQI1CQgANXVLrQQIECBAIJOAAJAJ0jQECBAgQKAmAQGgpm6plQABAgQIZBIQADJBmoYAAQIECNQkIADU1C21EiBAgACBTAICQCZI0xAgQIAAgZoEBICauqVWAgQIECCQSUAAyARpGgIECBAgUJOAAFBTt9RKgAABAgQyCQgAmSBNQ4AAAQIEahIQAGrqlloJECBAgEAmAQEgE6RpCBAgQIBATQICQE3dUisBAgQIEMgkIABkgjQNAQIECBCoSUAAqKlbaiVAgAABApkEBIBMkKYhQIAAAQI1CQgANXVLrQQIECBAIJOAAJAJ0jQECBAgQKAmAQGgpm6plQABAgQIZBIQADJBmoYAAQIECNQkIADU1C21EiBAgACBTAICQCZI0xAgQIAAgZoEBICauqVWAgQIECCQSUAAyARpGgIECBAgUJPA/wNJCYfNzRP3mAAAAABJRU5ErkJggg==;" vertex="1" parent="1">
          <mxGeometry x="378" y="60" width="50" height="50" as="geometry" />
        </mxCell>
        <mxCell id="FDqJe7q0dYofpkMNyn92-3" value="" style="shape=image;verticalLabelPosition=bottom;labelBackgroundColor=default;verticalAlign=top;aspect=fixed;imageAspect=0;image=data:image/png,iVBORw0KGgoAAAANSUhEUgAAAgAAAAIACAYAAAD0eNT6AAAgAElEQVR4Xu3de7B2VV0HcESRmyAoyE3FEFFEEgoCFUHSvKCIGpfBC4OKqHgXRU0gEEGBcvojLadRJ6dsahrvOTppWVONTU5ZOVqWjWOlqaVNk+WkYr+l59GX9/Zc9tp7r8vnmVnD4T17r/Vbn9+eOd/3vHs/zx328CJAgAABAgS6E7hDdzu2YQIECBAgQGAPAcBFQIAAAQIEOhQQADpsui0TIECAAAEBwDVAgAABAgQ6FBAAOmy6LRMgQIAAAQHANUCAAAECBDoUEAA6bLotEyBAgAABAcA1QIAAAQIEOhQQADpsui0TIECAAAEBwDVAgAABAgQ6FBAAOmy6LRMgQIAAAQHANUCAAAECBDoUEAA6bLotEyBAgAABAcA1QIAAAQIEOhQQADpsui0TIECAAAEBwDVAgAABAgQ6FBAAOmy6LRMgQIAAAQHANUCAAAECBDoUEAA6bLotEyBAgAABAcA1QIAAAQIEOhQQADpsui0TIECAAAEBwDVAgAABAgQ6FBAAOmy6LRMgQIAAAQHANUCAAAECBDoUEAA6bLotEyBAgAABAcA1QIAAAQIEOhQQADpsui0TIECAAAEBwDVAgAABAgQ6FBAAOmy6LRMgQIAAAQHANUCAAAECBDoUEAA6bLotEyBAgAABAcA1QIAAAQIEOhQQADpsui0TIECAAAEBwDVAgAABAgQ6FBAAOmy6LRMgQIAAAQHANUCAAAECBDoUEAA6bLotEyBAgAABAcA1QIAAAQIEOhQQADpsui0TIECAAAEBwDVAgAABAgQ6FBAAOmy6LRMgQIAAAQHANUCAAAECBDoUEAA6bLotEyBAgAABAcA1QIAAAQIEOhQQADpsui0TIECAAAEBwDVAgAABAgQ6FBAAOmy6LRMgQIAAAQHANUCAAAECBDoUEAA6bLotEyBAgAABAcA1QIAAAQIEOhQQADpsui0TIECAAAEBwDVAgAABAgQ6FBAAOmy6LRMgQIAAAQHANUCAAAECBDoUEAA6bLotEyBAgAABAcA1QIAAAQIEOhQQADpsui0TIECAAAEBwDVAgAABAgQ6FBAAOmy6LRMgQIAAAQHANUCAAAECBDoUEAA6bLotEyBAgAABAcA1QIAAAQIEOhQQADpsui0TIECAAAEBwDVAgAABAgQ6FBAAOmy6LRMgQIAAAQHANUCAAAECBDoUEAA6bLotEyBAgAABAcA1QIAAAQIEOhQQADpsui0TIECAAAEBwDVAgAABAgQ6FBAAOmy6LRMgQIAAAQHANUCAAAECBDoUEAA6bLotEyBAgAABAcA1QIAAAQIEOhQQADpsui0TIECAAAEBwDVAgAABAgQ6FBAAOmy6LRMgQIAAAQHANUCAAAECBDoUEAA6bLotEyBAgAABAcA1QIAAAQIEOhQQADpsui0TIECAAAEBwDVAgAABAgQ6FBAAOmy6LRMgQIAAAQHANUCAAAECBDoUEAA6bLotEyBAgAABAcA1QIAAAQIEOhQQADpsui0TIECAAAEBwDVAgAABAgQ6FBAAOmy6LRMgQIAAAQHANUCAAAECBDoUEAA6bLotEyBAgAABAcA1QIAAAQIEOhQQADpsui0TIECAAAEBwDVAgAABAgQ6FBAAOmy6LRMgQIAAAQHANUCAAAECBDoUEAA6bLotEyBAgAABAcA1QIAAAQIEOhQQADpsui0TIECAAAEBwDVAgAABAgQ6FBAAOmy6LRMgQIAAAQHANUCAAAECBDoUmCMAHBfO945xRIwjt8bi68Pi//fqsA+2TIBA2QLfjfK+GuPLMb60NRZf/0v8/2difK/sLaiOwO0FpggAd4olz4xx3tY4WhMIECDQmMBXYj/vj/G+GB+L8a3G9mc7DQqMFQD2D6tztn7gp/8e3KCdLREgQGBnAt+MP/zwVhj4QPz3PzERKFEgdwBIv75/foxrYhxS4obVRIAAgQkF/ivWujXGm2L8z4TrWorAUoFcASDNc2GMm2Ics3RVBxAgQKAvgXS/wPUx3hbjO31t3W5LFcgRAM6Ozd0S45RSN6kuAgQIFCLw91HHa2K8p5B6lNGxwJAAsG+4/VqMp3XsZ+sECBDYROCjcdJFMb6+ycnOIZBDYNMAkB7fS3e7+lt/ji6YgwCBHgU+H5s+N8Zne9y8Pc8vsEkAODXKfm+MFAK8CBAgQGBzgXST4MUxPrT5FM4ksJnAugEgXahvj7HPZss5iwABAgS2E7gt/v+qGL9IhsCUAusEgKujsBumLM5aBAgQ6Egg3VN1eUf7tdWZBVYNAM+IOt85c62WJ0CAQOsC1/qLVustLmd/qwSA06Pcj8fYu5yyVUKAAIEmBdLnCZwf491N7s6mihJYFgDuGdX+RYzDi6paMQQIEGhXIL2V8BkxPtXuFu2sBIHdBYD9osA/iXFyCYWqgQABAh0JfDH2mp64Sp9A6EVgFIHdBYDfiRUvGGVVkxIgQIDAMoE/iwMeEePbyw70fQKbCOwqADw+JvvgJhM6hwABAgSyCbwwZnpzttlMRGAbgZ0FgD3j+38d40GkCBAgQGBWgfRPAPeN8d+zVmHxJgV2FgAujZ2+o8nd2hQBAgTqE0ifInhdfWWruHSB7QNAeoe/z8W4V+mFq48AAQKdCKS//R8b4yud7Nc2JxLYPgC8MtZNH+3rRYAAAQLlCLwlSnlBOeWopAWBbQPAQbGhf4pxcAsbswcCBAg0JPCd2MvxMf6xoT3ZyswC2waAy6KW9F7UXgQIECBQnsCNUVL6TBYvAlkEtg0AvxcznpNlVpMQIECAQG6BT8eEJ+ae1Hz9CiwCwAFB8LUY3u+/32vBzgkQKF8gPRKY/qnWi8BggUUAuDBm+u3Bs5mAAAECBMYUuDImf9OYC5i7H4FFAHhXbPnifrZtpwQIEKhS4I+j6rOqrFzRxQmkAHDnGOnX/wcWV52CCBAgQGBbge/G/6RPZ/13LASGCqQAcHaMPxg6kfMJECBAYBKBp8YqvzXJShZpWiAFgGfGeHvTu7Q5AgQItCPw2tjKTe1sx07mEkgBIF1Mr5+rAOsSIECAwFoC3hVwLS4H70ogBYD0UZNXICJAgACBKgTeF1U+qYpKFVm0QAoA747x5KKrVBwBAgQILAQ+GV+cioPAUIEUAD4R47ShEzmfAAECBCYR+HKscuQkK1mkaYEUAL4Yw8f/Nt1mmyNAoCGB22Iv6fHt9EigF4GNBVIA+L8Ye208gxMJECBAYGqBo2LBL029qPXaEkgB4HttbcluCBAg0LzAj8UOv9D8Lm1wVAEBYFRekxMgQGAUAQFgFNa+JhUA+uq33RIg0IaAANBGH+faxUmx8C0CwFz81iVAgMDmAgLA5nY9n3nv2Hx647+nx7iDANDzpWDvBAjUKiAA1Nq5eeo+OJZ9TYwXx9h7UYIAME8zrEqAAIEhAgLAEL1+zk0/7F8YI73lfwoBt3sJAP1cCHZKgEA7AgJAO70cYyfpZ3v61MgbYxy9qwUEgDHozUmAAIFxBQSAcX1rnv1RUfwtMU5etgkBYJmQ7xMgQKA8AQGgvJ7MXdGPb/3gf8yqhQgAq0o5jgABAuUICADl9GLuStJb+d8Q4xkx9lynGAFgHS3HEiBAoAwBAaCMPsxZxUGx+OLO/n02KUQA2ETNOQQIEJhXQACY13/O1dMHQb0gxtUx7jakEAFgiJ5zCRAgMI+AADCP+5yrpp/XF8dId/bfJ0chAkAORXMQIEBgWgEBYFrvuVf76Sgg3dn/kzkLEQByapqLAAEC0wgIANM4z73KiVHAzTEeN0YhAsAYquYkQIDAuAICwLi+c89+zygg3dl/SYy17uxfp3ABYB0txxIgQKAMAQGgjD7kruKuMeGrY7wkxr65J99+PgFgbGHzEyBAIL+AAJDfdM4Z0539V8RId/bffapCBICppK1DgACBfAICQD7LOWdKP4MvipHu7D9m6kIEgKnFrUeAAIHhAgLAcMO5Zzg7Ckh39p8yVyECwFzy1iVAgMDmAgLA5nZzn/mgKCDd2X/O3IUIAHN3wPoECBBYX0AAWN9s7jOOigJeF+PSGKPd2b/OJgWAdbQcS4AAgTIEBIAy+rBKFQfGQenO/pfGGP3O/lUKWhwjAKyj5VgCBAiUISAAlNGH3VWxV3zz+TGuiXFIieUKACV2RU0ECBDYvYAAUO4Vkn6uXhDjphj3LbfMPfYQAErujtoIECCwcwEBoMwr46wo69YYp5ZZ3u2rEgBq6JIaCRAgcHsBAaCsK+KEKOeNMZ5QVlm7r0YAqKlbaiVAgMAPBASAMq6EI6OM62M8M8Ydyyhp9SoEgNWtHEmAAIFSBASAeTtxQCz/qhgvi7HfvKVsvroAsLmdMwkQIDCXgAAwj3y6s/+5Ma6Nceg8JeRbVQDIZ2kmAgQITCUgAEwl/aN1Fnf2Hzv90uOsKACM42pWAgQIjCkgAIype/u5Hx7/m+7sP226JadZSQCYxtkqBAgQyCkgAOTU3Plcx8cfpzv7nzj+UvOsIADM425VAgQIDBEQAIbo7f7cI+Lb6c7+Z8Wo7s7+dVgEgHW0HEuAAIEyBASA/H1Id/a/MsaVMaq9s38dFgFgHS3HEiBAoAwBASBfH+4UUy3u7L9HvmnLn0kAKL9HKiRAgMD2AgJAnmviZ2OaN8S4X57p6ppFAKirX6olQIBAEhAAhl0HZ8Tp6c7+04dNU/fZAkDd/VM9AQJ9CggAm/X9AXFaurP/vM1Ob+ssAaCtftoNAQJ9CAgA6/X58Dj8uhiXxWj6zv51WASAdbQcS4AAgTIEBIDV+nCXOGxxZ//+q53Sz1ECQD+9tlMCBNoREAB238t0Z/9zYvx8jMPaaXvenQgAeT3NRoAAgSkEBIBdKz8lvpXu7D9uikbUvIYAUHP31E6AQK8CAsCOnX9o/FG6sz/912sFAQFgBSSHECBAoDABAeBHDbn/1t/4n1xYj4ovRwAovkUKJECAwA4CAsAP/m3/uhjpzv70b/5eawoIAGuCOZwAAQIFCPQcANLd/K/YGukuf68NBQSADeGcRoAAgRkFegwA6W/5z976W396rt9roIAAMBDQ6QQIEJhBoLcA8KQwTu/gl/693yuTgACQCdI0BAgQmFCglwDwkDBNd/Y/bELbbpYSALpptY0SINCQQOsBID3Dn57lT8/0e40kIACMBGtaAgQIjCjQagC4R5ild++7PIY7+0e8gNLUAsDIwKYnQIDACAKtBYB0Z//LY1wVw539I1wwO5tSAJgI2jIECBDIKNBKAEifzLe4s/+IjD6mWkFAAFgBySEECBAoTKCFAPDEME139h9fmG035QgA3bTaRgkQaEig5gBwWvQh3dn/8Ib6UeVWBIAq26ZoAgQ6F6gxABwbPUt39p/fee+K2b4AUEwrFEKAAIGVBWoKAIfGrq6N8dwYe628QweOLiAAjE5sAQIECGQXqCEA7Be7XtzZf0B2ARMOFhAABhOagAABApMLlBwA0p39z4xxfYwjJ5ex4MoCAsDKVA4kQIBAMQKlBoBzQyjd2f/AYqQUsksBAcDFQYAAgfoESgsAPxWE6c7+M+uj7LdiAaDf3ts5AQL1CpQSAO4bhDfFuLBeyn4rFwD67b2dEyBQr8DcAeCQoEt39j8vhjv7K72OBIBKG6dsAgS6FpgrAOwb6i+L8aoYB3bdgQY2LwA00ERbIECgO4GpA0C6s//SGOnO/qO60250wwJAo421LQIEmhaYMgA8PiRvjnFC06Idbk4A6LDptkyAQPUCUwSAU0PplhiPqF7LBnYqIAC4MAgQIFCfwJgB4K7B8dYY6c7+9DPCq1EBAaDRxtoWAQJNC4wZAE4Kub9qWs/mvi8gALgQCBAgUJ+AAFBfz4qrWAAoriUKIkCAwFIBAWApkQOWCQgAy4R8nwABAuUJCADl9aS6igSA6lqmYAIECOwhALgIBgsIAIMJTUCAAIHJBQSAycnbW1AAaK+ndkSAQPsCAkD7PR59hwLA6MQWIECAQHYBASA7aX8TCgD99dyOCRCoX0AAqL+Hs+9AAJi9BQogQIDA2gICwNpkTtheQABwTRAgQKA+AQGgvp4VV7EAUFxLFESAAIGlAgLAUiIHLBMQAJYJ+T4BAgTKExAAyutJdRUJANW1TMEECBDwRkCugeECAsBwQzMQIEBgagG/AZhavMH1BIAGm2pLBAg0LyAANN/i8TcoAIxvbAUCBAjkFhAAcot2OJ8A0GHTbZkAgeoFBIDqWzj/BgSA+XugAgIECKwrIACsK+b4HQQEABcFAQIE6hMQAOrrWXEVCwDFtURBBAgQWCogACwlcsAyAQFgmZDvEyBAoDwBAaC8nlRXkQBQXcsUTIAAAW8E5BoYLiAADDc0AwECBKYW8BuAqcUbXE8AaLCptkSAQPMCAkDzLR5/gwLA+MZWIECAQG4BASC3aIfzCQAdNt2WCRCoXkAAqL6F829AAJi/ByogQIDAugICwLpijt9BQABwURAgQKA+AQGgvp4VV7EAUFxLFESAAIGlAgLAUiIHLBMQAJYJ+T4BAgTKExAAyutJdRUJANW1TMEECBDwRkCugeECAsBwQzMQIEBgagG/AZhavMH1BIAGm2pLBAg0LyAANN/i8TcoAIxvbAUCBAjkFhAAcot2OJ8A0GHTbZkAgeoFBIDqWzj/BgSA+XugAgIECKwrIACsK+b4HQQEABcFAQIE6hMQAOrrWXEVCwDFtURBBAgQWCogACwlcsAyAQFgmZDvEyBAoDwBAaC8nlRXkQBQXcsUTIAAAW8E5BoYLiAADDc0AwECBKYW8BuAqcUbXE8AaLCptkSAQPMCAkDzLR5/gwLA+MZWIECAQG4BASC3aIfzCQAdNt2WCRCoXkAAqL6F829AAJi/ByogQIDAugICwLpijt9BQABwURAgQKA+AQGgvp4VV7EAUFxLFESAAIGlAgLAUiIHLBMQAJYJ+T4BAgTKExAAyutJdRUJANW1TMEECBDwRkCugeECAsBwQzMQIEBgagG/AZhavMH1BIAGm2pLBAg0LyAANN/i8TcoAIxvbAUCBAjkFhAAcot2OJ8A0GHTbZkAgeoFBIDqWzj/BgSA+XugAgIECKwrIACsK+b4HQQEABcFAQIE6hMQAOrrWXEVCwDFtURBBAgQWCogACwlcsAyAQFgmZDvEyBAoDwBAaC8nlRXkQBQXcsUTIAAAW8E5BoYLiAADDc0AwECBKYW8BuAqcUbXE8AaLCptkSAQPMCAkDzLR5/gwLA+MZWIECAQG4BASC3aIfzCQAdNt2WCRCoXkAAqL6F829AAJi/ByogQIDAugICwLpijt9BQABwURAgQKA+AQGgvp4VV7EAUFxLFESAAIGlAgLAUiIHLBMQAJYJ+T4BAgTKExAAyutJdRUJANW1TMEECBDwRkCugeECAsBwQzMQIEBgagG/AZhavMH1BIAGm2pLBAg0LyAANN/i8TcoAIxvbAUCBAjkFhAAcot2OJ8A0GHTbZkAgeoFBIDqWzj/BgSA+XugAgIECKwrIACsK+b4HQQEABcFAQIE6hMQAOrrWXEVCwDFtURBBAgQWCogACwlcsAyAQFgmZDvEyBAoDwBAaC8nlRXkQBQXcsUTIAAAW8E5BoYLiAADDc0AwECBKYW8BuAqcUbXE8AaLCptkSAQPMCAkDzLR5/gwLA+MZWIECAQG4BASC3aIfzCQAdNt2WCRCoXkAAqL6F829AAJi/ByogQIDAugICwLpijt9BQABwURAgQKA+AQGgvp4VV7EAUFxLFESAAIGlAgLAUiIHLBMQAJYJ+T4BAgTKExAAyutJdRUJANW1TMEECBDwRkCugeECAsBwQzMQIEBgagG/AZhavMH1BIAGm2pLBAg0LyAANN/i8TcoAIxvbAUCBAjkFhAAcot2OJ8A0GHTbZkAgeoFBIDqWzj/BgSA+XugAgIECKwrIACsK+b4HQQEABcFAQIE6hMQAOrrWXEVCwDFtURBBAgQWCogACwlcsAyAQFgmZDvEyBAoDwBAaC8nlRXkQBQXcsUTIAAAW8E5BoYLiAADDc0AwECBKYW8BuAqcUbXE8AaLCptkSAQPMCYwaAu4Xeu2I8pnnFzjcoAHR+Adg+AQJVCowZABYgj4wvbo1xcpVCil4qIAAsJXIAAQIEihOYIgCkTaefEU+N8foY9ylOQUGDBASAQXxOJkCAwCwCUwWAxeb2ji9eGOPnYqR/IvBqQEAAaKCJtkCAQHcCUweABfBBWyHgRfHffbpTb2zDAkBjDbUdAgS6EJgrACxw7x1fpH8WeFqMPbsQb3CTAkCDTbUlAgSaF5g7ACyAT4ovbo7x6ObFG9ygANBgU22JAIHmBUoJAAvon4kvbomRAoFXJQICQCWNUiYBAgS2ESgtAKTS0s+Tp8dI/zSQ/onAq3ABAaDwBimPAAECOxEoMQAsykxPDKSbBNMTAwfrXrkCAkC5vVEZAQIEdiVQcgBY1Jx++L82Rnp8MIUCr8IEBIDCGqIcAgQIrCBQQwBYbOPo+GLxxED6meNViIAAUEgjlEGAAIE1BGoKAIttpbcUTjcKPmqNfTp0RAEBYERcUxMgQGAkgRoDwIIifchQenTwwSPZmHZFAQFgRSiHESBAoCCBmgNAYkxvHrR4YuBeBbl2VYoA0FW7bZYAgUYEag8AizaktxN+cYzXxEhvM+w1oYAAMCG2pQgQIJBJoJUAsOBIHzC0eGLgzpmMTLNEQABwiRAgQKA+gdYCwKID94kvboxxcQxPDIx8XQoAIwObngABAiMItBoAFlQ/EV+kJwYeOYKdKbcEBACXAgECBOoTaD0ALDry2K0gcGJ9LSq/YgGg/B6pkAABAtsL9BIA0r7TEwOXxLghxj1dCvkEBIB8lmYiQIDAVAI9BYCFaXpi4CUx0hMDd50KuuV1BICWu2tvBAi0KtBjAFj08u7xxdUxrojhiYEBV7gAMADPqQQIEJhJoOcAsCBPBjfFuCiGJwY2uBAFgA3QnEKAAIGZBQSAHzXglPgyPTFw9sw9qW55AaC6limYAAECewgAO14E58Qfpc8YeJDrYzUBAWA1J0cRIECgJAEBYOfdSE8MXBrjdTGOKqlhJdYiAJTYFTURIEBg9wICwO599o1vvzTGq2Mc6GLauYAA4MogQIBAfQICwGo9OyQOuybG82J4YmA7MwFgtYvIUQQIEChJQABYrxvHxOHpiYELY3hiYMtOAFjvInI0AQIEShAQADbrwqlx2q0xztrs9LbOEgDa6qfdECDQh4AAMKzPT4jT3xjjhGHT1H22AFB3/1RPgECfAgLA8L7fMaa4NEZ6YuDI4dPVN4MAUF/PVEyAAAEBIN81sF9M9bIYV8Xo6okBASDfRWQmAgQITCUgAOSXPjSmXDwxsFf+6cubUQAorycqIkCAwDIBAWCZ0ObfPzZOTU8MXLD5FHWcKQDU0SdVEiBAYFsBAWD86+G0WCJ9xsCZ4y81zwoCwDzuViVAgMAQAQFgiN56554bh6cnBh643mnlHy0AlN8jFRIgQGB7AQFg2msiPTHwrBjXxzhi2qXHW00AGM/WzAQIEBhLQAAYS3b386YnBl4eIz0xcMA8JeRbVQDIZ2kmAgQITCUgAEwlvfN17hF/fG2My2NU+8SAADDvRWR1AgQIbCIgAGyilv+c+8WU6YmB8/NPPf6MAsD4xlYgQIBAbgEBILfosPlOj9PTZwycMWyaac8WAKb1thoBAgRyCAgAORTzz3FeTJmeGHhA/qnzzygA5Dc1IwECBMYWEADGFt58/vTEwLNjpCcGDt98mvHPFADGN7YCAQIEcgsIALlF88+3f0x5ZYxXxrhL/umHzygADDc0AwECBKYWEACmFt98vfTEwHUxnhPjTptPk/9MASC/qRkJECAwtoAAMLZw/vmPiynfEOMp+afebEYBYDM3ZxEgQGBOAQFgTv1haz8kTk9PDDxs2DTDzxYAhhuagQABAlMLCABTi+df70kxZXpi4P75p15tRgFgNSdHESBAoCQBAaCkbmxeS7on4LIY18U4bPNpNjtTANjMzVkECBCYU0AAmFM//9rpKYFXxEhPDUz2xIAAkL+RZiRAgMDYAgLA2MLzzJ9+C5B+G5B+KzD6EwMCwDxNtioBAgSGCAgAQ/TKPzfdF5DuD0j3CYz2EgBGozUxAQIERhMQAEajLWri9KRAemIgPTmQ/SUAZCc1IQECBEYXEABGJy5qgfTeAek9BNJ7CWR7CQDZKE1EgACByQQEgMmoi1ko3RNweYyfj5HeXXDwSwAYTGgCAgQITC4gAExOXsyC6SmB9PkC6YmB9HkDG78EgI3pnEiAAIHZBASA2eiLWTh90mD6xMH0yYPpEwjXfgkAa5M5gQABArMLCACzt6CYAh4QlaQnBs5btyIBYF0xxxMgQGB+AQFg/h6UVsEZUVB6YuD0VQsTAFaVchwBAgTKERAAyulFaZWcHwXdFON+ywoTAJYJ+T4BAgTKExAAyutJSRXtFcUsnhg4dFeFCQAltUwtBAgQWE1AAFjNqfejDgiAq2K8PMZ+22MIAL1fHvZPgECNAgJAjV2br+YjYun0xMCzYvzwiQEBYL6GWJkAAQKbCggAm8r1fd4DY/vpiYFzE4MA0PfFYPcECNQpIADU2bdSqj4zCrlVACilHeogQIDA6gICwOpWjtyFQAoAt239JgASAQIECNQhcHSU+cU6SlVlqQIpAHw1xi4fEyi1cHURIECgY4F0R/f/drx/W88gkALAp2I8OMNcpiBAgACB8QW+EUvcbfxlrNC6QAoAH4rxuNY3an8ECBBoRODTsY8TG9mLbcwokALA22KkZwO9CBAgQKB8gY9EiY8tv0wVli6QAsANMa4uvVD1ESBAgMD3Bd7hL22uhBwCKQA8P8ZbckxmDgIECBAYXeD1scI1o69igeYFUgBInyH83uZ3aoMECBBoQ+B5sY23trEVu5hTIAWAQ2L8W4wfviXfONcAAAkmSURBVD/wnAVZmwABAgR2K5DezvWzjAgMFUgBIL0+HuOsoZM5nwABAgRGFfiHmP24UVcweTcCiwDwktjxL3WzaxslQIBAnQK3Rtnp4129CAwWWASA9LaSXxg8mwkIECBAYEyBM2LyPx1zAXP3I7AIAGnHfxnj5H62bqcECBCoSiC9bXv6XPf0+S1eBAYLbBsAro3Zrh88owkIECBAYAyB9KZtl40xsTn7FNg2ANw/CD4TY88+KeyaAAECRQs8Oqr7/aIrVFxVAtsGgFT4r8e4pKodKJYAAQLtC/xRbPER7W/TDqcU2D4A3DsW/1yMvacswloECBAgsFuB0+O7f86IQE6B7QNAmjs9ZvKKnIuYiwABAgQ2FvjdOPOCjc92IoFdCOwsAKTPmf58jIOoESBAgMCsAt+J1U+IkX4z60Ugq8DOAkBaIL3RxM1ZVzIZAQIECKwr8CtxwhXrnuR4AqsI7CoA7BMn/22MY1eZxDEECBAgkF3gP7b+9v+V7DObkEAI7CoAJJzjY3wixoGkCBAgQGBSgW/Haumxv49PuqrFuhLYXQBIEI+L8cEY3hugq8vCZgkQmFnAR/7O3IAell8WAJLBlTF+oQcMeyRAgEABAr8cNbyogDqU0LjAKgEgEbwjxqWNW9geAQIE5hb4aBSQfvOa7v73IjCqwKoB4M5RRbowHz5qNSYnQIBAvwJ/F1t/aIxv9Etg51MKrBoAUk37bv0m4KIpC7QWAQIEOhD4w9jj+TG+3sFebbEQgXUCwKLkq+OL18XY5NxCtq0MAgQIFCPwq1FJ+jd/v/YvpiV9FLLpD/GnBM87Y+zfB5NdEiBAILtA+oH/0hhvzj6zCQmsILBpAEhTPzjG+2OkDxDyIkCAAIHVBdK/86f39//Y6qc4kkBegSEBIFVy9xjXxkjPrKYbBb0IECBAYNcCt8W3fiNG+qfUfwZFYE6BoQFgUfsx8cWNMdINgrnmnNPF2gQIEMgt8OGY8FUx/ib3xOYjsIlA7h/Wp0QRt8Q4e5NinEOAAIEGBT4Ze0ofsJbu9PciUIxA7gCw2Nhj4otLYpwTw8cKF9NuhRAgMJHAN2Odj8T4zRjvifG9ida1DIGVBcYKAIsC9oovzoxxXownxjh65cocSIAAgboE0qf2fSDG+2KkN077Vl3lq7Y3gbEDwPaeJ8UfpE+4SkHgqK1xZPz3sBh37A3ffgkQqE4g/U3+azH+dZuRbuZLv95Pn56abvLzIlCFwNQBYFco6Yf/4Vsj/dbAiwABAiUJfDeKSX/D/3KM9FG9XgSqFyglAFQPaQMECBAgQKAmAQGgpm6plQABAgQIZBIQADJBmoYAAQIECNQkIADU1C21EiBAgACBTAICQCZI0xAgQIAAgZoEBICauqVWAgQIECCQSUAAyARpGgIECBAgUJOAAFBTt9RKgAABAgQyCQgAmSBNQ4AAAQIEahIQAGrqlloJECBAgEAmAQEgE6RpCBAgQIBATQICQE3dUisBAgQIEMgkIABkgjQNAQIECBCoSUAAqKlbaiVAgAABApkEBIBMkKYhQIAAAQI1CQgANXVLrQQIECBAIJOAAJAJ0jQECBAgQKAmAQGgpm6plQABAgQIZBIQADJBmoYAAQIECNQkIADU1C21EiBAgACBTAICQCZI0xAgQIAAgZoEBICauqVWAgQIECCQSUAAyARpGgIECBAgUJOAAFBTt9RKgAABAgQyCQgAmSBNQ4AAAQIEahIQAGrqlloJECBAgEAmAQEgE6RpCBAgQIBATQICQE3dUisBAgQIEMgkIABkgjQNAQIECBCoSUAAqKlbaiVAgAABApkEBIBMkKYhQIAAAQI1CQgANXVLrQQIECBAIJOAAJAJ0jQECBAgQKAmAQGgpm6plQABAgQIZBIQADJBmoYAAQIECNQkIADU1C21EiBAgACBTAICQCZI0xAgQIAAgZoEBICauqVWAgQIECCQSUAAyARpGgIECBAgUJOAAFBTt9RKgAABAgQyCQgAmSBNQ4AAAQIEahIQAGrqlloJECBAgEAmAQEgE6RpCBAgQIBATQICQE3dUisBAgQIEMgkIABkgjQNAQIECBCoSUAAqKlbaiVAgAABApkEBIBMkKYhQIAAAQI1CQgANXVLrQQIECBAIJOAAJAJ0jQECBAgQKAmAQGgpm6plQABAgQIZBIQADJBmoYAAQIECNQkIADU1C21EiBAgACBTAICQCZI0xAgQIAAgZoEBICauqVWAgQIECCQSUAAyARpGgIECBAgUJOAAFBTt9RKgAABAgQyCQgAmSBNQ4AAAQIEahIQAGrqlloJECBAgEAmAQEgE6RpCBAgQIBATQICQE3dUisBAgQIEMgkIABkgjQNAQIECBCoSUAAqKlbaiVAgAABApkEBIBMkKYhQIAAAQI1CQgANXVLrQQIECBAIJOAAJAJ0jQECBAgQKAmAQGgpm6plQABAgQIZBIQADJBmoYAAQIECNQkIADU1C21EiBAgACBTAICQCZI0xAgQIAAgZoEBICauqVWAgQIECCQSUAAyARpGgIECBAgUJOAAFBTt9RKgAABAgQyCQgAmSBNQ4AAAQIEahIQAGrqlloJECBAgEAmAQEgE6RpCBAgQIBATQICQE3dUisBAgQIEMgkIABkgjQNAQIECBCoSUAAqKlbaiVAgAABApkEBIBMkKYhQIAAAQI1CQgANXVLrQQIECBAIJOAAJAJ0jQECBAgQKAmAQGgpm6plQABAgQIZBIQADJBmoYAAQIECNQkIADU1C21EiBAgACBTAICQCZI0xAgQIAAgZoEBICauqVWAgQIECCQSUAAyARpGgIECBAgUJOAAFBTt9RKgAABAgQyCQgAmSBNQ4AAAQIEahIQAGrqlloJECBAgEAmAQEgE6RpCBAgQIBATQICQE3dUisBAgQIEMgkIABkgjQNAQIECBCoSUAAqKlbaiVAgAABApkEBIBMkKYhQIAAAQI1CQgANXVLrQQIECBAIJOAAJAJ0jQECBAgQKAmAQGgpm6plQABAgQIZBIQADJBmoYAAQIECNQkIADU1C21EiBAgACBTAICQCZI0xAgQIAAgZoEBICauqVWAgQIECCQSUAAyARpGgIECBAgUJPA/wNJCYfNzRP3mAAAAABJRU5ErkJggg==;" vertex="1" parent="1">
          <mxGeometry x="709" y="60" width="50" height="50" as="geometry" />
        </mxCell>
        <mxCell id="FDqJe7q0dYofpkMNyn92-4" value="" style="endArrow=classic;html=1;rounded=0;exitX=0.5;exitY=1;exitDx=0;exitDy=0;" edge="1" parent="1" source="FDqJe7q0dYofpkMNyn92-1">
          <mxGeometry width="50" height="50" relative="1" as="geometry">
            <mxPoint x="69" y="210" as="sourcePoint" />
            <mxPoint x="94" y="170" as="targetPoint" />
          </mxGeometry>
        </mxCell>
        <mxCell id="FDqJe7q0dYofpkMNyn92-7" value="" style="endArrow=classic;html=1;rounded=0;exitX=0.5;exitY=1;exitDx=0;exitDy=0;" edge="1" parent="1">
          <mxGeometry width="50" height="50" relative="1" as="geometry">
            <mxPoint x="402.83" y="110" as="sourcePoint" />
            <mxPoint x="402.83" y="170" as="targetPoint" />
          </mxGeometry>
        </mxCell>
        <mxCell id="FDqJe7q0dYofpkMNyn92-8" value="" style="endArrow=classic;html=1;rounded=0;exitX=0.5;exitY=1;exitDx=0;exitDy=0;" edge="1" parent="1">
          <mxGeometry width="50" height="50" relative="1" as="geometry">
            <mxPoint x="733.83" y="110" as="sourcePoint" />
            <mxPoint x="733.83" y="170" as="targetPoint" />
          </mxGeometry>
        </mxCell>
        <mxCell id="FDqJe7q0dYofpkMNyn92-9" value="&lt;font style=&quot;font-size: 8px;&quot;&gt;Kamera 1&lt;/font&gt;" style="text;html=1;align=center;verticalAlign=middle;resizable=0;points=[];autosize=1;strokeColor=none;fillColor=none;" vertex="1" parent="1">
          <mxGeometry x="59" y="40" width="60" height="30" as="geometry" />
        </mxCell>
        <mxCell id="FDqJe7q0dYofpkMNyn92-10" value="&lt;font style=&quot;font-size: 8px;&quot;&gt;Kamera 2&lt;/font&gt;" style="text;html=1;align=center;verticalAlign=middle;resizable=0;points=[];autosize=1;strokeColor=none;fillColor=none;" vertex="1" parent="1">
          <mxGeometry x="373" y="40" width="60" height="30" as="geometry" />
        </mxCell>
        <mxCell id="FDqJe7q0dYofpkMNyn92-11" value="&lt;font style=&quot;font-size: 8px;&quot;&gt;Kamera 3&lt;/font&gt;" style="text;html=1;align=center;verticalAlign=middle;resizable=0;points=[];autosize=1;strokeColor=none;fillColor=none;" vertex="1" parent="1">
          <mxGeometry x="704" y="40" width="60" height="30" as="geometry" />
        </mxCell>
        <mxCell id="FDqJe7q0dYofpkMNyn92-12" value="Capture Service" style="rounded=0;whiteSpace=wrap;html=1;" vertex="1" parent="1">
          <mxGeometry x="34" y="170" width="120" height="60" as="geometry" />
        </mxCell>
        <mxCell id="FDqJe7q0dYofpkMNyn92-13" value="Capture Service" style="rounded=0;whiteSpace=wrap;html=1;" vertex="1" parent="1">
          <mxGeometry x="343" y="170" width="120" height="60" as="geometry" />
        </mxCell>
        <mxCell id="FDqJe7q0dYofpkMNyn92-14" value="Capture Service" style="rounded=0;whiteSpace=wrap;html=1;" vertex="1" parent="1">
          <mxGeometry x="674" y="170" width="120" height="60" as="geometry" />
        </mxCell>
        <mxCell id="FDqJe7q0dYofpkMNyn92-19" value="" style="group" vertex="1" connectable="0" parent="1">
          <mxGeometry x="378" y="310" width="50" height="200" as="geometry" />
        </mxCell>
        <mxCell id="FDqJe7q0dYofpkMNyn92-15" value="" style="strokeWidth=2;html=1;shape=mxgraph.flowchart.database;whiteSpace=wrap;" vertex="1" parent="FDqJe7q0dYofpkMNyn92-19">
          <mxGeometry width="50" height="49.99999999999999" as="geometry" />
        </mxCell>
        <mxCell id="FDqJe7q0dYofpkMNyn92-16" value="" style="strokeWidth=2;html=1;shape=mxgraph.flowchart.database;whiteSpace=wrap;" vertex="1" parent="FDqJe7q0dYofpkMNyn92-19">
          <mxGeometry y="33.333333333333336" width="50" height="49.99999999999999" as="geometry" />
        </mxCell>
        <mxCell id="FDqJe7q0dYofpkMNyn92-17" value="" style="strokeWidth=2;html=1;shape=mxgraph.flowchart.database;whiteSpace=wrap;" vertex="1" parent="FDqJe7q0dYofpkMNyn92-19">
          <mxGeometry y="66.66666666666667" width="50" height="49.99999999999999" as="geometry" />
        </mxCell>
        <mxCell id="FDqJe7q0dYofpkMNyn92-18" value="" style="strokeWidth=2;html=1;shape=mxgraph.flowchart.database;whiteSpace=wrap;" vertex="1" parent="FDqJe7q0dYofpkMNyn92-19">
          <mxGeometry y="99.99999999999999" width="50" height="49.99999999999999" as="geometry" />
        </mxCell>
        <mxCell id="FDqJe7q0dYofpkMNyn92-42" value="" style="group" vertex="1" connectable="0" parent="FDqJe7q0dYofpkMNyn92-19">
          <mxGeometry y="386" width="50" height="150" as="geometry" />
        </mxCell>
        <mxCell id="FDqJe7q0dYofpkMNyn92-43" value="" style="strokeWidth=2;html=1;shape=mxgraph.flowchart.database;whiteSpace=wrap;" vertex="1" parent="FDqJe7q0dYofpkMNyn92-42">
          <mxGeometry width="50" height="49.99999999999999" as="geometry" />
        </mxCell>
        <mxCell id="FDqJe7q0dYofpkMNyn92-44" value="" style="strokeWidth=2;html=1;shape=mxgraph.flowchart.database;whiteSpace=wrap;" vertex="1" parent="FDqJe7q0dYofpkMNyn92-42">
          <mxGeometry y="33.333333333333336" width="50" height="49.99999999999999" as="geometry" />
        </mxCell>
        <mxCell id="FDqJe7q0dYofpkMNyn92-45" value="" style="strokeWidth=2;html=1;shape=mxgraph.flowchart.database;whiteSpace=wrap;" vertex="1" parent="FDqJe7q0dYofpkMNyn92-42">
          <mxGeometry y="66.66666666666667" width="50" height="49.99999999999999" as="geometry" />
        </mxCell>
        <mxCell id="FDqJe7q0dYofpkMNyn92-46" value="" style="strokeWidth=2;html=1;shape=mxgraph.flowchart.database;whiteSpace=wrap;" vertex="1" parent="FDqJe7q0dYofpkMNyn92-42">
          <mxGeometry y="99.99999999999999" width="50" height="49.99999999999999" as="geometry" />
        </mxCell>
        <mxCell id="FDqJe7q0dYofpkMNyn92-21" value="" style="endArrow=classic;html=1;rounded=0;exitX=0.5;exitY=1;exitDx=0;exitDy=0;startSize=6;entryX=0.48;entryY=-0.031;entryDx=0;entryDy=0;entryPerimeter=0;" edge="1" parent="1" target="FDqJe7q0dYofpkMNyn92-15">
          <mxGeometry width="50" height="50" relative="1" as="geometry">
            <mxPoint x="402" y="230" as="sourcePoint" />
            <mxPoint x="402" y="290" as="targetPoint" />
          </mxGeometry>
        </mxCell>
        <mxCell id="FDqJe7q0dYofpkMNyn92-23" value="" style="endArrow=none;html=1;rounded=0;edgeStyle=orthogonalEdgeStyle;entryX=0.5;entryY=1;entryDx=0;entryDy=0;" edge="1" parent="1" target="FDqJe7q0dYofpkMNyn92-12">
          <mxGeometry width="50" height="50" relative="1" as="geometry">
            <mxPoint x="402" y="270" as="sourcePoint" />
            <mxPoint x="129" y="270" as="targetPoint" />
          </mxGeometry>
        </mxCell>
        <mxCell id="FDqJe7q0dYofpkMNyn92-24" value="" style="endArrow=none;html=1;rounded=0;edgeStyle=orthogonalEdgeStyle;entryX=0.5;entryY=1;entryDx=0;entryDy=0;" edge="1" parent="1" target="FDqJe7q0dYofpkMNyn92-14">
          <mxGeometry width="50" height="50" relative="1" as="geometry">
            <mxPoint x="402" y="270" as="sourcePoint" />
            <mxPoint x="689" y="310" as="targetPoint" />
          </mxGeometry>
        </mxCell>
        <mxCell id="FDqJe7q0dYofpkMNyn92-25" value="Message Queue&lt;div&gt;(MQTT)&lt;/div&gt;" style="text;html=1;align=center;verticalAlign=middle;resizable=0;points=[];autosize=1;strokeColor=none;fillColor=none;" vertex="1" parent="1">
          <mxGeometry x="247" y="340" width="110" height="40" as="geometry" />
        </mxCell>
        <mxCell id="FDqJe7q0dYofpkMNyn92-27" value="" style="shape=image;verticalLabelPosition=bottom;labelBackgroundColor=default;verticalAlign=top;aspect=fixed;imageAspect=0;image=data:image/png,iVBORw0KGgoAAAANSUhEUgAAAe0AAACaCAYAAACE5BA2AAAAAXNSR0IArs4c6QAAAARnQU1BAACxjwv8YQUAAAAJcEhZcwAADsMAAA7DAcdvqGQAADNSSURBVHhe7d17TBxXni/w717tSFcLacBDcPDA8txMYhI6Htp/gMZgT7s16WVtRGzkRYljyCBfkVlvYjyzww14pbvGq86OsSfjmaBF7OD4cVlkE0Syvj2jDuNAcuHeNcTbdnCc3AaagfjRYXh0YLXSrrT3j3Oq6lR1dXc1NA1t/z4SEvSpOv2oon91HnV+f5CVlfWfAFBfX49f/OoX0PMXr/wF2tratA8TQgghJIb+i/YBQgghhGxMFLQJIYSQOKEftHd+jbG+GUz3PcA/7tQWEkIIIWQ96ATt/8A//mAR+OcnkFmxGX/+obacEEIIIetBN2hvNn0Dt/73H2oLCCGEELKOdII2IYQQQjYiCtqEEEJInAgM2jv/HWn4BqZpLJsQQgjZUISg/Tmu9c1g+gfAWxWb8GNxK0IIIYSsOyFofxu7KjKQ+Q/Aa31z+Km4FSGEEELWXWD3+IffgA//jky6P5sQQgjZUAKDNiGEEEI2JArahBBCSJzQCdp/iAf+f8fmPO3jhBBCCFlPukH7z/8hCWl7ae1xQgghZCPRCdoAPnwMBRUZtPY4IYQQsoH8QVZW1n8CQH19vbZMpa2tTfsQIYQQQmJIDtqVlZXo7e3VlhNCCCFkg9DvHieEEELIhkNBmxBCCIkTFLQJIYSQOBHFoF0H+7uTON7uAODAwf5JHGmp024Uh4T3YruEI/2TOBh6zl4ETGiuq0ZvVRaALLQ2VOOi1aTd6JFTat2D3oYy1ACoqapGb10hSrUbEULIIyiKQZsQY2qqqtHboPy0mrVbEEII0RPFoN2Br2aBBZ8HgAezi8DClx3ajeKQ8F5c01iAH7Me7TYr5cfMIrA8Nw9gHvN+4MGsX7vRQ+fc5S5UnuY/XWPYbN2D5nSlfHDWD/jnMQFgYm4JWFzEoFgBIYQ8omJ4y1cd7O82wZIk/e2B02rDiPSn7RKONJYgWfp7vBsnDjey3+tdOG7zofOFFzED8C5rO2YdZjhdQnkbUCnVIe4v1bE/X/5zYfgkzjbziwpVmR8jUr2GHcKpnr3I8b6Hfcfe0RaujrkMvdYt8p/L7qt4qV8K7FlobShBrlQ4PYTKy1O8270MmPSjyLwFmB5CH0pQkQlM9HfhmJttXmrdg6PmRL7zXfSdHsA5/ldNVTV2z11FO8rkbcR9ta9LVRaRLLQ2FGK+63203NOWEUIIEUWxpR1aRssRWGa7ccKaw3+EgA0HDjaWYOGKVNYNb96ByMbEk0pQ25iGYWsOTjiGsJBnh93Gy+pdOL4/DSMOqf4cJWDbLuGIWHbFB0ujCxax7vViLkOv1YTRLqVlqgRsoKYqG7ekFuvpIUxklghdzYkoypnHma4xLGeWYPfcVZxxLyH3ySy57qNmP/r4/mfcJlRoxo4TzOU4uukmL19C7napPAutT3qV1nL/XeRa2Rh0xMzZyPVPYZACNiGEhBWzoA0AyCvSDYYZLXZkLw7hmrzoWiMuXPEgeesuZKg3DcGPEQe/EHBdg2fRhNR8sBa+LR8Lw2d1W88ZZc8AYllbN0YW8/F0RJPN3sGP9u2LcivbhObtW7DsHgjaAj13WWkZA1O4NQ1sTlUmsk1cv8m7le/iAyHYA0DNk1sw0a/sP9h/ExOmLJQK3dTwj+HM5SlWfnsKy6YU3qqfwjH+OADA7cUETMgQ9w2JT8BrqEavdYvwOgkhhIQSs6A902yGczwf9v5JHNebWT47zbu+V2jxU9ySg3IHnC/k4EIbAOQjNSn4+PoTaSYkFzfhOH9dx/vFLvz1lIIUU5gxbnOZakJXRaZ2g2BMyEgCcq3ihDChm51bnvQqwfTeTbyk6T4Pvq8QlHUnm/nR0iH1EFzF/HaaNU8IIUbELGgDwMhhpft7obhJHbhTM1Wt6oxvpQl/rQabSBbKwvBJodue/bCAv57YxLSg0gtx0boFE/1K13nftHaj0MR92Y+xceVS6x5UZN6Vu9YrTw9hQrWFGJTZT/Dxbj8GJ5eQsClFW0AIIUQjpkFboQ6kMwOfYiGpBLvkLmkHdhWb4HVJE88AJKXhCYBPaDuAbOnxsDpw67Yf2fv1x6lHbniQXHxEGf9ekUM41dODntZD2oJVYMEs9FjxEuZ9/FdzWQQtbSN1h8FndwNATZW2pR2JLFSYEzHxhdDdbsCh1h709PTgVK22hBBCHl4xCtp84RWxC3q2W5kM5noRZx1DSN4vlR9A8vBJpbXbZhO61puQ6uqGV6w+jJlmMzqH0+SueVX3fJuNTz4TX59+gI+1wf732QQxoZtZ7ka+dxMfTCeiqJqXbZ/HaAQtbb26jS5iwsa/C3CU77d7bkzT0g5F23VeAqxg5vk7n04CANI279AWEULIQyuGt3wREkVlTTj/l9+B75/24Ued2kJCCHk4xailTUi07EBTZw96KGATQh5B1NImhBBC4gS1tAkhhJA4QUGbEEIIiRMUtAkhhJA4QUGbEEIIiRMUtAkhhJA4QUGbEEIIiRNRDNp81bN2B893rZMUBDxNprzymHuVy4fGjqXd2Ou1tKvfd0aLW15hzdI+iePvXoogc1lopdY96G1gS5HWVBlf0YyQjYLOYUIiE8X7tOtgf5ctT3riMHCQL0UqL1UK8GB+ALiyERJyRMbSPgl7nh8jDrNuik+JpX0SxT7lfWe0uFFb7IPTagPaJ2FPHULnC8Ka6qtQat3Dc2IPAFXVqEgaw5kOJc1lTZWQ+cuvLlP2T+R/3UWfkMUL6YW4WF2ABP7nhGqp0Sy0ajN76dTPnn8Jo13aRCQmNNeVo0hK7DU9hEox1ae5DL3WLfyPwP3VrxtYdl9lecZV+4mCvDft8yL8czPS61eXqz5vIHD/MHUHPR6aYyHTe/1BBK0bCH88EPozC3meaY+JZv9w5zAhRC2KLe0OfDULLPg8ckKQgHSYtkwkw4PP4ixgQ85QFjpg65n50gcs+nAfwH2ff/UpSAWDs345ccfE3BKwuKj6sqzAkJz+chQFOFqVpexsLuNfllKGsC2okFs5JjSXZ+FOF8/S1X8XudY9aFblyxazfHWhUvVFm4XWhmo8OzeGZXEXrqaqHEWL0msbwkRmiZCaMwutVsh1n3EDRdVCYhNzGY7mTOGM9LxdY4C5jL0294Dyfv0smLO/lQBVat2D3nLgjt467emFuGg1YZS/74Dn5kqtZShavKu73ro6c5oQlMPVHep43LuJl8TP+vQQJrCE0Y+NBeyQdYc9HmE+s3DnmXxMeHmSuu6Q5zAhJEAUgzYLbKyFKeazFuSnIVnzEMO61g/WS93QOl3Rqm51ti3jwMF+F+wtbp4IxMGTk4j7axKWtDvkasOyXcKRkIlE1HXb8zTFbTac4C3rmWYzThxu1GwA7Gg8j56e82gq05aE4R6Qg+Vg//vqFpB7QPibZfVCUpISlLdvwbL7hhzMzn08hmVTFkrT2fYtHULAcXsxgUSkGMyWWlNViPmuLhy7rS1hwWt3phhwptDnXkJCTjZ/bVM4JgTZwdtTWIYJGfyCoTTVpP5iv7eIB9Lv4aQX4vCmm6jsuKl74VTz3QIkTN+U3/dg/01MYAueFXOBpxfisBkY/TiSlDXh6g53PNRKrYXY7B7Q6QHQE6bucMcjzGcW+jzT8mNGmyY31DlMCAkQ1aAdDBvXncTx/fkApGxdgcEzez/rWj5hzYFz3ARLlVTuwMFto0q+6yseTarNfFjSnDhxxYPk4gNIdbH988vY2LKlnXfbW3NwwnoSI6kH9Mfb9bhexFlrDk44hrCgLQuoOwfOce0WG1EKUkxLuHNbStidhdbqAiREEJhDOXdZr0uZS0tBgn8Kg0KX8VFzImBKMZTec/D2FJaFlmBNVQlyxfpCuXcTLwUNCiZkJEFIEWpCcx0bAticKrUMTWguLwAMB0xJuLojOB7phThs9uOD/lDJ1kVh6g53PEJ+ZpHKwrOZ4mshhEQqJkF7ptksB1vAA6cUfLWtznElXefIDQ+QmsknbTXigrht2yi8SMPjckvaj5HLvHxxCNdULXwHns7zwCnv3wGny4PkrbtWPyHMdgnFqrpX5iPHy9i372WcHNCWREl6IQ6bEzFxXTtWKKXJZOkx+6bFAKVggXEMfar0mVuEtJ7arnMD0gtxsaEavVag7/QQJoTWtIIFSbGFyrqKr+JOTjl6G6pZ12yUx0BrqqrR21COpyav4ox7CQmbUliBeRuKMIb2EAEz16qTRlUQtG7AwPFgn8eDfnE82qgwdRs6HmEEOc/YZDP23LnisSSERCwmQdso7w0xMCvdypBnb0s/B5CtbBmaLRPJYutebvE/KljLCu6rmpzViSiqLkfKdTbeeMzNWoMPZtUBqdS6BxWZd9GnCoxTOCaOsfb7UVQdQeA2FeBodQo+kMab05OwGX7MaL7Ma6rKUYQxnBFbeumFuNggvW42RirNPo6GXGs1ds+xsfCX+v3I3ZSI5bl5PtZuwujV4BcI5y6rx50fmMtVgTt43TB2PPhFg/riyYgwdRs8HqEFO894tzf/XM7MFdIMcUJWYUMF7WAyWtyw5wktdGs3IhtRFPflP1Gawb2x8Vne00NsdrVsHvN8opbyBcu6Ued9ylZsZi8w2hWmZef26k7K0uWbxzKW1HWmpSCBT0aSsBnJ2osFaWx4iL9uP1o6rmLUvwW7dVq1keHjrarPSghu5mzkIhFF1VJLukT5W5x4JZvCLXniVpi6DR2P8BcN+sLUbfB4hBbsPAs0eHsKywaHQgghgeIiaAOQZ2ADgKU9gpa26xo8i/mwRzL5zCjXNBaQj6f5pDh2caHdKLwVT0QLSfkiDZzcwyYMJUizrvnkJnFsWAnYIcanucjGlb24409EUbkwU337FixPeuVgJAds1W1JAnGiU3o2njIF9hCsxLkv7gKZJWiVJp6Zt6HIdBe33NpZ0KwlPYElNhs84PPls6qF8duQdRs6HpFMPhOFqdvA8Qgt1HkWiF10efWPaxCHWnvQ09ODU7XaEkIePVG8T9uAeheO7wecVhtGVAXsHu9Ul86Mc0C+v1sK1AvDQ1gofgazDjOcLgcO9tvZ7/kuHLf50PnCi3hCdb80v4c8SalxIeAecn3sPmttK86jvId6l9LdPt6NTp8dlThrqG7JjsbzeH078MnPozeurb2XWSLeb63aRnV/rc592OI2hu691T63eF+y+r5g+T5rGLknWXNPccA95JC3eWpSqBcI/r7E1696byEuHJCF1oZCzMvvSVu3zr5h6g56PIJ9Jjp1BBO0biDgM1Udj4D3xfHPTP9YK8ckoNxgcFepPYWeP8vB8vWf4WXHR9pSQh4psQ3ahBASqbImnP/L78D3T/vwo05tISGPlvjpHieEPGJ2oKmzBz0UsAmRPdItbf2ub0n4JUsJWXdBu84ZdVc3ISTePdJBmxBCCIkn1D1OCCGExAkK2oQQQkicoKBNCCGExAkK2oQQQkicoKBNCCGExIkoBm2eV7rdwVcwmzSe/lIi5a5eiyVHN6QofGZB8axOVVl8VSv9rFOEPLTMZXIGOpZpLHqJZQhZL1G85YsvFTrbjROHgYP9B5CsWSrUolpaVIftEo40liB5vDswbedasl3CkcY0DAcsr7rWwn9mK8eXplwcQuVloLWhBJtV9+xqlgMNWF4ydDlbH5z/oV0WU+/e4YD6w5Dq0NlPvTSm8aU8Ae1SouLSqox22U3lPucgy3lql1EN8brDPbchUv2az1x1PIAI6w99rLXvfSX3frPXp/OaQn0m2vNI9Z4Dl7NlhPPBXIZeqwmjXe9jcOseHDX7IztXCNmAotjS7sBXs8CCj+XMnl0EFr6MMPi4XsRZvTzbD60ofGZBscxSLPUjy/QkJtUotZbhqUmWJrLy9BAmMktULfGaKh7w9crNZSyP9WmeHhMFOKrNdOUfwxkxwYY2gIVQat2D3nLgjpwlS2Au41++rN6+6S2oMJzqMQutVsj7nnEDRdVC68tchqM5U8rr7hoD5EQbSjrSM+4l1fsT13IP+rrTC3HRamIJRvSe2xCeT3v6rrYA4BcPSkITowE7zLGGCc117IJP+UzKlcQnYbFenmfnxrCsLQp3PO7dxEvCOdS3KJ5nfrR0iO+X5Qhfdt9QgrJvHss8xejgrB+IKHMZIRtTFIM2MHI4h7cSO+B8QUn+kdHixvH+SdjzgOTiJiWvtdANLubLVncR18H+rhv2Fpe8j7TtQZ5dC8JzsB8XLEINcjd0QDnrkj7eWKLJue2G3absra5bKKt34Xj7JV63G/Z63r3/7iVkyPW7YJG6/VVlTLDPTHEIp3p60NN6SFsQ1rnLLG+z9AUnJtUY7H9faC2xNJIJm1LYn+mF2J25hNGPpUA7hT73EhJysllwdA8IQZhlkVJl3lqN9EIc3nQTlR03dVKn8gxUwhfzuY/HsGzKQqmhXN5TOCa0tAZvT2EZJmRI2a9STcDiotJjcG8RD6Tfwwn5uqXsVjflQDrYfxMT2IJnNcGvpqo6aDduqbWM5dP+QltijG7d4Y41z0b2gXSu3LuJD6aB3Cf10pEGqqkqxHxXF47d1pYg7PHQmphb0j6kSC/E7qQxtIs9APdu4iWpfvcAKjVpXgmJR1EN2sHMNJtxwpoD5zjLriXntBZa1COH2WPOcdWunAmWrT50OoawkHcAxb6T6Bz2I3sbD/r1LtQW++Sc2Z3DabALwTGj5QjrgpbzaUvd4I24YM3BCccQFlQ5t4XlS22XsAtn5X07hwFLvRB480qQ6sqBc9wEy/40DFu74U16Bs/KQT8f9sY0DFtzcMJ6EiMoQWXUxq3XSFoKEsRUm+Yy1mUcizzI927ipaCtcpYHWkp3CWShtboACUhESppm0xUYvD2FZaGVGVnK0VCvm+XOnvhCKmet11wAm1MD+nf1pRfisBkryKcdRphjXZpqAoRUmqXWPawb3uBF2rnLxlv8oZlQmpMofIbqsubyAjy4HuXPhpANKCZBOxq8rhd5C8aDYc2Yr2VbPrxXlPHomWanJnACyCvStL4Ncr2IC8LzzQx8ioWkNDwhPbA4hGu8dbww3K0zJu7HiEN6bR24dduP5DSeytOQd/Cjffuw79g72oLo4bmfldYWl16Iiw3V6LUCfaeHMKHXCkovxGFzIia0X5imAhxtqEZvg07rbtX4JLuGEqCfdYsaDn4y9kUvtn5Zy+wq7uSUo7ehmg0BRLl1xlq7LG3oGfeS0rvBnbvchUqdcdea7xYAYfJp51qlz1t/0mGwugEDx9pcht6GajZ80DWG5ahfwOkcDyjP29tQznoZVClYmVJrGYoWhzTpWQl5OMVN0A6uDo+nAtn7xe5vJfc2eEvfOa50f0c2Q1vTtd5YgmTtJpFKzVR1ka+r9EJctG7BRL+mRWQqwNHqFHxwmn/RpydhMx8fVLCWLtxX1V+YmrHIM24TKsTALQWIFQX1RBRVlyPlOqv7mJu1YuXxeoN111SxIHBGbB2nF+Jig1T3VYwmlQTdfyVyrdXYPcfGhl/q9yN3UyKfcxCGuQwV2q5fDRaQpZ8hPDCX6wZuXeGOdWYJerfPszH8jpsYTEtBQpTHh3WPB3i3tvS+rqfgaMDxyEKFGYEXnIQ8pB6CoM14r0hd2zpd3EL3+wlrNxaKmwwHbkt7EywYQqdUr2MIC9qNIjU7rTvuGXN8dm5A0PXNYxlLGO0SWmUBX9R8RvH0UNiZxGysUqAJ6kFbfwHYhLpl1etlXebzPv6ngbrZTOa76NO0otm4s9Ri86Ol4ypG/Vuw22jwC4pNCoTqs9JcbIRQ8+QWdc+FVflbf0IYm6NgSJhjPTjrZzOyhc8qYOx/lYIdjwBub0APQE1VCTaH6YEg5GES06B93+dH8tZdUW5lsi7n7P3ayWfBsFnaKq5pLCAfTwsT21TkIFsHe/0qWtq2S6gsNsF7I5LZ8SufiBaSELADgu49L+74E1FULs3K5hPAJr38S1UJ2OFnhUvdnsq46MqxSW8J8oxuoNRaaHzcWQwQOsEc0IzVpmfjKZOxwBrOuS/uApklSpDlE7xuabp09SaLqVvRXajsvyvPXtftEubDHcrYP6NXd9hj7fZiAltQIc/azkKFOXBsmdUd7CIiuLDHQxBwrPUmn0Wq9hR61uL/i5A1EsX7tI3g9yUn8T/l+7EdOKjp0gbYpLWzzYD93SakunJwwaPcT32/xY3aNKc8mS0gN/biEDpfeBEz2ueE+LyCeheO75fGmoVc2tK947zEOzyE5GJ+T3e9C8dtPnS+8CKekO9Bz8fBfjtmHWY4XYHvy3tFb4Z4KIdwqmcvcrzvRXVcO/C+Xmjuk1XfByvem6u9l1ki3a+sLY/svt4g90MLFwiq+rX3iIeive9XItcdeO+v6h5srtS6h43tqp43/OtW35OsH6gMBTFzGeuulp9f+9z6+wevO/ixZtT1630m0vmkLdOeCww/zxDmeKg+L+2xDjxWEu1rCI3/f/k/wc9qT+IjbTEhG0yMg/ajxiEEcG0ZIWT97UBT5+v4zlx0L4oJWSsx7R4nhJCNYkfjefT0UMAm8YWCNiHkkfSR42XsW+vbKQmJMgraa6oRFzSz2AkhhJCVoqBNCCGExAkK2oQQQkicoKBNCCGExAkK2oQQQkicoKBNCCGExIkoBm2eWKPdIeepNrq+d6xZ2gNfm5QzW8zRHQ2sXrbEqqU9MJ/2apRa98jLUtZUVaO3TlqKUoNnSop0icmVy0KrlGmKJ/CI3XMTQsjDK4pBmxBCCCFrKYpBuwNfzQILPo+clGPhS3Xe641sptmME9ZI1wUPb+ZLH7Dow32eMCWaGb4GZ/0Az8Y0MbcUPPMST29ofD3m1WLZuB7M+oF7i3gAIQsXIYSQFYvh2uPBkoWAd6cX4TOHD8VScg454UeQ/eGB02rDCP/L0j4Je55UJiT8AHT2lZKRdGiSlWj3Y93blTiL4bQmuX510o/ApCB69YSyo/E8Xt8OfPLzl3FyQFu6QtpkC5pECqXWPTiMAXywqVxOHKJOtKBJyKDJ6KWbCMJQ1i9CCCErFcWWdmiW9iZYZrt5TuuTGEk9oBlXzoe9MQ3DPOe1N6kEu+TxZR505f1zcEII2BktbthTlZzXncOApVFJ1al+7hw4x6V6wVct488pPixILm5Cse8kr9uPbJsyLm1pP4DscV43z7XtvWI8YK8Z3rpmP0NCHmxFgrkcu+euyukec61K2saaqnIULQ7x/a9iNKmEjVGDZcs6bAZGu1j9fdM8AxMFbEIIWVMxCtoOPJ3ngVNuWXfA6fJocmv7MeKQAnEjPhsHkr/Fg3r9AViSxP1FDuwqNsHrUlrlM81nMbLI82PbLqFY9dwrMN7NW+XAzMCnWEhKwxMAf19Q8mO7rsGzKLxug9gayFFsZRs1PaSkYHR7MQETMtIBIAvPZt5FnxyE/Wi5fhcJOdkoBVC6NQsJQl7jc1/cBUwpgWkpCSGERFVsgrYtE8nIh71/EselHzl3dXgZ30qTx4X1+THr0T4WC2zsPnubg/1p24X8JD88A/Ezlq+WiJQ0AOlJ2IwtqGioRq/0I3S1D876AVMWStPZ3zVPbgGmvQH5mwkhhERXbII2wMegpa5t/qMasw5u5stws5hMSFVdA+QjVRi/Xjts8h3yDrALkcYSYPjs+neNr5g4Yewu+uTudf7TcZNNdPPNYxmJKKpmAb1C1SonhBCyVmITtF3X4FnMh72dt0gj1TYKb1IJKnXv+2Zd6eI4c0aLHdmLQ7jWBsA1jQXwrnJp/FuesLZKUte7cCEidaNHguX1PY+mMm1J7NRUlSBX6vK+58Ud/xZUVGVpNwMA1Hy3AHDzsfDTXag8PRB5K7usCed7etDT2YQd2jJCCCG6YhO00QHnC2zymdw9HtHiK424YO3GQnGTsL8y0WzkcA6csyWo5WW1xT445VZ8Iy5c8SB7Py9Lc6JzmI/jAkC9i9d3ANkwwdI4ieP9bthtyiZBuV7E8Lim2z+i97XOMkvk7u+KpDGckVrS8KOlg00+k7vHpcVSAJz7eAwwl6vKpEVeDBsYxOd+0Fg4IYREIIa3fD2EbJdwpDENw8JMdvbYM/BEcMvX2stCa0Mh5rveRwufPFZq3YOjm26u6Batmqpq7J67qkxi449VILJbvg619mDvpk/ws9qT+EhbSAghJECMWtoPqfw0dk+5IKPsGSTDh682TMAGSq2FyIUfMzxgr44JGQHzBbLwbCawPDevLdBXewo9PRSwCSEkUtTSXiX1oi4IWPRlvdRUVcuLpgBLGBVa2VhlSxvphbhYXYAE4aFlt7rlTQghJPooaBNCCCFxgrrHCSGEkDhBQZsQQgiJExS0CSGEkDhBQZsQQgiJExS0CSGEkDgRxaBdB/u7kzje7uA5poOsDCavQBbBymPrKKPFzd/TxpPR4pZXhrO0T+L4u8pSrqtmLkNvwx40p7PbwyJZ8azUuge9QZZAjR8mNNdVo9WsfrSmiq8AV1eIUnURuxVO73FDstAqrTqXXoiLDYHPTQghUQzaRjhwcH8+vFektbo30qpha4VdzByUc4OTtccCoLTEqm7wM5ex8iAXF1I+8WNu9ePnLvMc4osFOKq9kLl3Ex8sFuBokDoJIWS1ohi0WcarBZ9HTlm58KUmeYYtE8nw4LM29cNkZWa+9MkpS+/7/MDstKGsaYb45rHMV1EbnPUD/nlMaLfhNlTLOr0QFxtKgH4lO5k28AJZaLWaMDG9pC1gzGVhM5edu3wVo/4t2M3XY1c9nlSic6FgQnMd67nQN495P/Bg1g/cW8QDVcY1QghhYru4Sr0Lx/dDZ8WwOtjfbUKqKwefbZNWGPNjRFy/u96lysHtvZKDC23gXfFFmB1Og6XYhIXhbni2HoAlSdyf1W+Rlt8c78aJw41yXaFktLhRm+aEEwfklc/k59Z7P8JjCFgtjVkYPqlkA1O9L8171r7uFay2tqPxPF7fDnzy85dxckBbunps5bW76BMyfUmrrfWhRF6VbaJfDJ4mNNeVo0iKd34xWQl4S7lESSSiLTeXCfm91au91VRV49kv9AK1Qlon/cxcoc6qcOy1pVwPXQdCrbduLkPv9nnNe1Jet/qzIIQQ46LY0g6Ojb1O8uAkZMXSjBVn759Ese8kTlhz4Bw3wVIllTtwcNuokof7igfZ+5UsX0A+LGlOnLjiQXLxAaS62P75ZWxM3dLeBMtsN9+fZRvTHW8PJu+A/LpUz902Cq+Q9hMALNvygfFRjPDsYyesJzGyyAJ9QPpO2yUc2Z+GEYf0vnywNCrvK6PliPC6c3AiwoC9ttiYb0XSGM7opebMLMHuOZ6+s/8ucq1KV3KpdRtwVWoJX8UoCnBYaLHWVJVgs5j6Uwx+6YW4aDVhtIuX9ftRVC3VnYVnM5cwn8q7vvWyj4VrRadn4ynTXdwKG1TZGuy66627vZgwZaFU26p2D6CyawybrUrGNEIIiURMgvZMs1kOeKy1yIOQtrU73i0HtJEbHiA1k0+sasQFcdu2UXiRhsflSWx+jFzm5VIebZkDT+d54JT374DT5UHy1l3GJ20Jr0sdqBtxbdiP7G3KxcXTecJrCSOj7Blg+KzSsm7rxsii+iIAeUXCxUnkPnK8jH37ot3KzkJrAxvzVQVU0fSQsha524sJbMGzvMt4sH9AWAfdj8HJJSRsSpEeAAAk5GTrTugq3ZoFuIX93Tcw6ud1pydhMxJRtMkrB/y+6S2okCeHmdC8fQsm+nUuMiRpKUgIMRQgXaz0NpSjCGNo111vfR7z/kSkpGkfZ+PeL50ewgNz+cYZUiCExI2YBG2jvDfEwGzDCTknNp8dLc86P4BsZcvQbJlIFlv3cot/pdh4vWRm4FMsSIG1vgjZ407Dk+ueSDMhWZUjXOwKZxc7TiFfd0S9A2vJnB1hDmw2Xivjs6Ol1vBRc6JQyMeFUYCjOhPJcjclIkGVy1voZgcAqFvR5z4ewzLP2V1qLdOdXCYqTTXSAl5iLf1gFyzwY2YR2ByurszCEGPchBASaEMF7WAyWtyw5wktdGs3vNqNQhL35T/CBUFk8pGa5Mesh//pugYPbx1btuWrLzwMWBjm3e7CDxurZ1gXO3vPC8VNGyNwuwdYt3ZSif6tTwFSkGKSJlZlobW6ABC6v8+4tRPC/Gjp4N3fvDtZDNzLYte5ONns3iIewIQM3UBoQmlOIpBZor5YyCyRb20D+KS7kPxo6VBnTAvEus4f6NXFJ8qx7v9w9RBCiFpcBG0A8ixpALC0R9DS5kHVHqV7rTNa7Mhe/BS35NY0627PtrlRnKrtmmflX81C6EJXjNzwILn4iMF71dUtfKN2NJ5HT895NJVpS1aLBVbdW580Sq2FyPVPYVAIUHJASy/EYU1LW+XeIh4If5774i4SzGVBWqhTuDWdiKLvKt3ONd8tQMK0F+fECwHxYmF6SB08ffNyy1wX7yUIPSYtXqQIeErTB/1dK0tjWtaE8z096Olswg5tGSHkkRAXQXum2QlvUglqeTdxsW8ogpZ2B5wvsMlnSjd0hF3Necq+tVs/Rae2ld42Cm+SCbh9Tbf1PnK4G16hDvm522x88pnY9S9NROOL1Yhd57PC2PoGce5yF864TajQjs+KLdqcKWEm9RT63EvItfLu7eoU3FG1tNX3WPfyVqncpe0e4JPPxG2UiwbpliupTHd2dyj3vLijcytXRMzZARcpgAnN5Vm407WKmeMDg/jcDyDURQUh5KEW21u+HloOHOy3Y1Z1uxaJW+Yy9Fqhuo3NOOO3jK3EodYe7N30CX5WexIfaQsJIQ+9uGhpb3SW9gMRTUAjG5x7gM061/YeGBBsJbVVqz2Fnh4K2IQ86h7plnZGixu1xcG6QbULnQSySIunLA4FdpmTOLeCFnN6IS6WA+1BZ5UTQsjqPNJBmxBCCIkn1D1OCCGExAkK2oQQQkicoKBNCCGExAkK2oQQQkicoKBNCCGExIkoBm2+gle7gy82EuGqYzFkaY/da2NpSdkqZ5b2SRx/95Lx7GJGZfwCrkonXJW/wH/TlgUlHCPbJRzpn8RBMbuYAVLK1bD71bsieN8OHOx3h1jaNX7Os1gKeZ5F9PkHwc8RbTrdcDJa3BHvo3hUj3Wo/032mQT/n2P7slUUQ/0f6QlXtzpxU8THot4lvybxfI0OtpLiRatJXmpYyVeQhVYhv0AgcRXGUNsFYS6T9yu17glMBxxSHdoqnXBVOtFm8B80ikF7jdku4UhUD3IEovGlt2bq0LY9D57rdth6/wJ/ry3eoGJ54RSpgjea8Xbvm/jxK9qSp1D7zpt4u5f/nP6epvx7+LFU1vsm3u59Fc+Lxa+8KpQ1o3anWPjoWpdzQXUs9I/p86eFx9+pRoGqgnDnwnppxIUVJVUyRkpg5BzXlsSzKRw73YXK00MhUvKulQ7U99ph67+OJ7Yba3RFMWizxBgLPpYze3YRWPhyY62TvR5mvvTJyU7u+/zA7HR0F2Ex/TGewDj+JeJKhWPkmsYChMxlBkl50sWsZGtvLc8z9kV8EOOY1BYBKHhjP779eSderfwJXq38DSZzvg/HG0/x0qdQ+873gfd/wst/gvcms7BX+jLfWQ3Hnk24/hYr++V1YPtrmqC+Cmt+nrlexFlrDk6Iee3X3Boe61+9LR8n9tOJ637AP3uXlb/yKvbiN0oZnsMPVQG9Ftt/L5Vrz4XVWv3/5obk8WEBPnzlUp+v0cHS/z6Y9fMkQzoJe9aKbx7L8GPmHs8S6J+PPPj7r+H20hP442BrfQlis7hKvQvHt/kwkloCS5IfI1c+Rf7+EiSrVhJz4KCQJ3th+CRPjqF+XKFesUy9upl2NbM62N9V56pW6uevT8ix7b3CA5HtEo40liBZ2Y3zwGm1YQQIrHsFq6PtaDyP17cDn/z8ZZwc0JaGYfob9Fo34ddRbGVb2idR7BM+H0B+n6muHFxoE4+J9rNmAlab458LtI9Lxrt5QODruEvniLCv8c/0EE717EWO9z3sO/aOtjCogjea8af3W/DTX30PP+5lAfinv9JupXj+9Jvsi73ht7yVXYLZt1rQ+SErL3ijGT9MHcKrDb/VbAu+ffjniIp6F47bfHDefgZ2/tmrzn/tOSwfC0Ze+S9gPybgWEOpI6PFjdo0J5w4INch/X/p7ofA5w/nUGsP9mZP4r19P4Lxo62xsxqO11LwYeXb+LW2TDqW3x7HLw91YWxnNRyv5eFz7bGWyrU7R5X0f9gN7Jf+B8XvI0nwfAjBvyuN1h3sOyJU3QaVNeH8X34HuP4zvOyI1mK9WWhtKMR8/xSeshYgAQD8Y0ISI812XYEpc0ute1gqXwDAEkZ1tlmdXThp+yHwf/ejKUwCwCi2tMPIK0GqKwfOcRMs+9MwbO2GN+kZPGsDP1kOIFnOLc1yR7OxFd7d4xjCgiovtnAy2C5hF87K+ag7hwFLvdKdbWlnGbKkcnXXjgMHt40q+ayveJC9n3fDS62LKx4WOOTnVk7ijJYDQJv0+EmMoASVse7qi7L7Pj+S05SLmEBhuuDqXagt9inH6orSTJBa585xTS5x1Ze0dI7w50gqwa4Q42zRMva3LasIoL/FrcnHlNbzzmoc3P4YJj/9LYCnkP5N8N8ht8pzAHzziWi1zsJIKoE9zSkfj+TiA/JQk/r/g2XEE7urQ3aJ2i6hshgYcQjbLA6hUzyeeQdQ7GPHunPYj2wb+980di7ExvN7nwOu/1Y3YAfITYHJP45/5gEbr7yKH25/DDClIFOz6VrJ3m/HrPyZR5B6OMx3Jda47vWTiCJrCj443YXK01cxigIcNprJL70QFRgQUvoCReWFKNVuFyOxC9qLSq7pheFu9ZWbbRfyMYRe+aqtEdeG/bo5qHW5XsQF4YpvZuBTLCSl4QmwE6k4zwNn0C+CRlwQy9pG4UUaHjc4gWOm2SZcSXbg1u1wAS/QR46XsW/fClrZAGDahMSlOfw/7eOrMPOl0q+kjDfmIzXJSDddHey2fHivBF6dG+fHiEPavxGfjQPJ34rkQugd/Gjfvoha2RF75VXszfka19+TAjHw64af4NX3gb29b+Lt1/Lw+VuBrWg2TlqLb3/eiV9e/xqm1C3qDdaKGEhV57gDT6v+P1h++OStuwx92WaUPYNkIb/8yA0PIP3vScaVlLKq/80oeefYPuxbZSt7Z84UPvzbO9oSRroAG9C0ondWw9H7Jt7eA7xX+RtMYhPSYzRPwXtFabSM3PAAeUXG5vuE+q7k1rLusAZO4uV9+6LYypYsYbRLytrnx+DkEhJyso0F3ns3caxfaf4O3p7CctTT417D775OwNbMXdqCALEL2qHkpyFZyJd9vH9Sv9ssKE3uad0u7eDEGZHHdbviQ5Bm1a7oda+C6W/QW+mEK+NfYHP9NZTQEQUeHxZSM5EBB56GBwvyRQgbj3rk7ayGY08WJt9XukchBeSyefyy8id49f05bH/tTdU4Z86eN7Fzlo2JN/7tHWSmPqaMoa4XWyaSkQ+7cA6LQ0XhzHzpA+QeM8CyLR8YH13FBVvsPb/3OZgm7wRpZX8PP37tOeB6p/oCzPQcfvhaCj6s/AlerXwbv965Gd/EHO4J50PMeHxY0D4WVITflWtZ9zoanA3TB61iQnOdNLu8Gr3VvIs9yv7+/9jx68f+Cq7KKzgZIoxsjKAN3hKQu58j6yaztDfBAmF/x5DhEy2jxQ17ntjtHqTLV5cDBxtLAKFrr3M4kpNhFfx/jcpeO2wzz8Fl+xtEde6qa5pdIdcXIdnXjc9QBIstE8lRnTgSp3ZWw6H3Jb6zGjtzvsb1Tt4a+9XbePX9KZi2fw/P4w7u/R7A5G/QKLfmWJf57+8Had3FlHj+8x+jcwg8PizABEsj+6K2h+zV2oCk4yb0mCjYvIMc1XEDMDEPP77G9beE8e/cFJj885hWtoqd/DTD/5sRf1euZd3rqDTVBCwuGsrGV1NVjiKM4QzvHq/sGsOydqNV24WTNieem7HD1ht6XHtjBO22UXiTwowFu6axgHw8HWxsU54tWwd7vXCFp9mPBWl5L0Y4KS3tOi1tjw8LQmtCS57RaruEyhW0tHc0nkdPz3k0lWlLDPDPYSlxE/5E+3gUPP4twDPQgfu+NDxdlYZkQzOS2YxfeWjDdglHdFpu931+w12wkTuEUz096Gk9pC1YHSFgq77EZY8hVegze/6ZLIB/kf/60ykg5/vKbWSvfA/bTVO4peo+34Gmzp6Vnwsr4boGz2IE45Yalir1Ras438Oo1Z4Lh1p70NNzCis52qyVPaTqMWGUgK1MHuQ+vIHP/Y9he610G9hTqC3Lgv/zG+ruc54DPernoQobjlq4fc3A/yYX7LsywFrWHURZE8739OB84w5tSRRlocKciIkvprQFwckB3oTm8rVpaQPLmAsRrCUbI2ijERf45DOlm1p7k38jLlzxIHu/VK4sHDByeQgLeQf4401IvS1e4an3q01zqlrDM81OeIWu+WLfUGBL2/UieochtyaURQH42Lv0mhrT4IlVS3tNeTC7mA/LVh9uudjYVHJePr/1RlokYZIPJUitLOF4HO6GVzoejWkY1rninmk+ixEIQyIrDBpRJd+7yyaJ5exh9+BKgfb5vc/BBMC0vTbwfusPu9D4/pS8z9u9b2LvN/9FmU3MW95y+R7gvYCZyh9h8PNlAAlIie6AWQgdcL7AJp+J/3vKRDRlsQ57HpDM/0el8pHLQ4Dm/zbSRTPW7VzQmZcgKXijBDkAkPN91X3c7Fy4g85D/DawXmWOQsCFXOctduvgpgxEOwQp34NNyL+tuRMm1P9myO9KJmjdBs6FcHWvn0QUVUtd3CVAfxeOuXmRuUx+PFfeTllk5dzHY1jOLOHblCNlci1a2sbF5pYvsnbW4JYvso5qT6Hnz9JWdvvfOtC79cfSPgk7Irtt6+G0A02dr+M7c5HdekgeRRvxli+yNvy/w30YuymfbGS8Sz+OAjZQh8dTtY858HSetCDKo4sNeVHAJgaZdmFr4n38LkzABrW0HxIZv4Brex6AcVyhFjeJJZ0FiPQWYCGE6KlDW+U+5ANY+uLvUDl2TbtBAArahBBCSJyg7nFCCCEkTsgt7fr6YPdSAU9+m91Q9MZ/b9IWEUIIISRGVEG743/qj0P93f94E6CgTQghhKyrgKD9b//2b9pt8PM33wIAHH29QVtECCGEkBihMW1CCCEkTqiC9g/+6neY7pvB9IWvcVgsIIQQQsi6UwXtf/i7P0ZmRQb+8feLeK3pP8QiQgghhKwz3e7xH9/6I5gep6BNCCGEbCS6QZsQQgghGw8FbUIIISRO6Aft8W/An/Ov+Kn2cUIIIYSsG/2g/eFjKDjzDfxp3wymfxZ43zYhhBBCYk8/aP9gDtM/AN6qyEDm6/9VW0oIIYSQdaAftAHg999Au/YxQgghhKyb4EGbEEIIIRsKBW1CCCEkTugG7Z8++6/wf/WH2ocJIYQQso501x7/85w/wv86SUGbEEII2UgCUnPqoXzahBBCyPpTBe1gnvz2nwAUtAkhhJB1JQdtQgghhGxsuhPRCCGEELLxUNAmhBBC4sT/BwuY5HpfyIHCAAAAAElFTkSuQmCC;" vertex="1" parent="1">
          <mxGeometry x="484.91" y="280" width="288.11" height="90" as="geometry" />
        </mxCell>
        <mxCell id="FDqJe7q0dYofpkMNyn92-28" value="topic:&lt;div&gt;&amp;nbsp;input.camera&amp;lt;.id&amp;gt;.frames&lt;/div&gt;" style="text;html=1;align=center;verticalAlign=middle;resizable=0;points=[];autosize=1;strokeColor=none;fillColor=none;" vertex="1" parent="1">
          <mxGeometry x="218" y="380" width="160" height="40" as="geometry" />
        </mxCell>
        <mxCell id="FDqJe7q0dYofpkMNyn92-33" value="" style="endArrow=classic;html=1;rounded=0;exitX=0.485;exitY=0.933;exitDx=0;exitDy=0;exitPerimeter=0;" edge="1" parent="1">
          <mxGeometry width="50" height="50" relative="1" as="geometry">
            <mxPoint x="403" y="460" as="sourcePoint" />
            <mxPoint x="403" y="557" as="targetPoint" />
            <Array as="points">
              <mxPoint x="402.86" y="519.15" />
            </Array>
          </mxGeometry>
        </mxCell>
        <mxCell id="FDqJe7q0dYofpkMNyn92-34" value="Face-Detection Service" style="rounded=0;whiteSpace=wrap;html=1;" vertex="1" parent="1">
          <mxGeometry x="120" y="559" width="96" height="50" as="geometry" />
        </mxCell>
        <mxCell id="FDqJe7q0dYofpkMNyn92-35" value="Emotion - Service" style="rounded=0;whiteSpace=wrap;html=1;" vertex="1" parent="1">
          <mxGeometry x="355" y="559" width="96" height="50" as="geometry" />
        </mxCell>
        <mxCell id="FDqJe7q0dYofpkMNyn92-36" value="Cloth - Service" style="rounded=0;whiteSpace=wrap;html=1;" vertex="1" parent="1">
          <mxGeometry x="613" y="559" width="96" height="50" as="geometry" />
        </mxCell>
        <mxCell id="FDqJe7q0dYofpkMNyn92-39" value="" style="endArrow=classic;html=1;rounded=0;edgeStyle=orthogonalEdgeStyle;entryX=0.5;entryY=0;entryDx=0;entryDy=0;" edge="1" parent="1" target="FDqJe7q0dYofpkMNyn92-36">
          <mxGeometry width="50" height="50" relative="1" as="geometry">
            <mxPoint x="403" y="540" as="sourcePoint" />
            <mxPoint x="580" y="559" as="targetPoint" />
          </mxGeometry>
        </mxCell>
        <mxCell id="FDqJe7q0dYofpkMNyn92-40" value="" style="endArrow=classic;html=1;rounded=0;edgeStyle=orthogonalEdgeStyle;entryX=0.5;entryY=0;entryDx=0;entryDy=0;" edge="1" parent="1" target="FDqJe7q0dYofpkMNyn92-34">
          <mxGeometry width="50" height="50" relative="1" as="geometry">
            <mxPoint x="403" y="540" as="sourcePoint" />
            <mxPoint x="216" y="559" as="targetPoint" />
          </mxGeometry>
        </mxCell>
        <mxCell id="FDqJe7q0dYofpkMNyn92-41" value="" style="shape=image;verticalLabelPosition=bottom;labelBackgroundColor=default;verticalAlign=top;aspect=fixed;imageAspect=0;image=data:image/png,iVBORw0KGgoAAAANSUhEUgAAAZ0AAADBCAYAAAAU5G2aAAAAAXNSR0IArs4c6QAAAARnQU1BAACxjwv8YQUAAAAJcEhZcwAADsMAAA7DAcdvqGQAACssSURBVHhe7d17bFvXnSfwb2fTF+RQUqIykSONHtYGjp2IzZgGRkJjrUsTU46bGoolCKrjRl54XKg7XoydzlZTy0CwlgcMNra769kY1QrrJI7HMGJFcLMGs2BUr9VCKmB5PJQf8WZlPUaK7bBaS2ItpJ0WO/vHfZ17eMl7Scl8SN8PIMDk4T338pK+P57HPb8vVFRU/AuIiIgy4I/kJ4iIiB4WBh0iIsoYBh0iIsqYxQUdXwwjH05i4sM7+HufXEhERGS2iKDzB/z9nlngV0+h8lur8d1+uZyIiMhsEUHn93AXfhHXf/GIXEBERGRpEUGHiIgoNQw6RESUMekHHd/v4caXMMWxHCIiciiNoPM5PvpwEhN7gOPfKsGP5GIiIqIEvpD2Mji+GEb++p8RYuAhIiKH0mjpqPq/iCj+GeW8P4eIiBxKP+gQERGliEGHiIgyZhFB54uIzv8e7hr5eSIiImuLCDqP4LvdxXA3cu01IiJyJv3Za0RERClaREuHiIgoNSkHncbGRvkpIiIiR1IOOkREROli0CEiooxh0CEioozJQtDZjcD74zjYHQQQxM7+cezt2i2/KA8J78V/Gnv7x7GzXX5Nulzo3N2KvuYKABU4sr8V7/pc8otWnE2+F9G3vwFtANqaW9G3uxab5BcRUU7JQtAhcqatuRV9+42/Ix75FUSUb7IQdHrw6xlgLjoKYBQz88Dcpz3yi/KQ8F7CU5hDDDOj8mvSFcP0PLBwfxbALGZjwGczMflFy85b751B41H178wNPOF7EZ2lRvnATAyIzWIMwNj9B8D8PAbECogo56R8c2hjYyP6+vrkp5fQbgTePwBvofZ4FCGfH8PaQ/9p7O2oR5H2+PZZHNrTofy7PYyD/ihOvrQD04Da5RXATNCDUFgoPwE0anWI22t1NBlr+8wNHcbxTjUomspiGNbqdewVvNH7HVRN/AzbX31bLlwcTwP6fKv1hwuRC3i5XwtMFTiyvx7VWuHUIBrfm1S77RqA8Rg2eFYDU4M4j3psKwfG+s/g1Yjy8k2+F7HPs0rd+A7OH72Et9RHbc2t2HL/ArrRoL9G3FY+LlNZSipwZH8tZs98gK67chkR5YsstHSSK+vaC+/MWRzyVal/QsBBEDs76jF3Tis7i4k1LamNCRXWY1eHG0O+KhwKDmJuTQABv1rWHsbBJjeGg1r9VUbA8Z/GXrHsXBTejjC8Yt3Z4mlAn8+FK2eMloERcIC25kpc01oMRwcxVl4vdFWtwoaqWRw7cwML5fXYcv8CjkUeoPrpCr3ufZ4YzqvbH4u4sE0aOynwbMW+x0bU8geo3qiVV+DI0xNGa6X/Dqp9yhhMyjyVqI5NYoABhyiv5VzQAQCs2WB5MS/rCqByfhAXT2jPdODUuVEUrduMMvNLk4hhOKgGsvBFjM67UFIDpYXlr8Hc0HHL1ktZw7OAWHbiLIbna/BMSpMF3sYPt29f4laOC50bV2MhcilhC+Ct94yWCTCJa1PAEyXGRISxyyNqt9QdfCQEKwBoe3o1xvqN7Qf6RzDmqsAmoZsLsRs49t6kUn5zEguuYrVVNYlX1ecBAJEJjMGFMnHbpNQJFPtb0edbLRwnEeWrnAs6050ehG7XINA/joNWM9tmptSuszTNX8c1Paj0IPRSFU6dAIAalBQmHl960u1CUd0BHFSP62C/2AWYTcUodtmM8XgaTAPy28rlFyTiQlkhUO0TB/SFbjrVwviEEQzujuBlqfst8bZCULGcLBBDV4/WQruA2Y2ctUeU73Iu6ADA8B6j+2yu7oA58JSUm1o1ZU+5hUeLoUwESGZu6LDQ7af8KQErm5SJBQmV1uJd32qM9Rtdb+en5BclJ26r/DkbV9nkexHbyu/oXXONRwcxZnqFGFSUv8TjPTEMjD9AwWPFcgER5ZGcDDoGcyCYvnQdc4X12Kx3aQWxuc6FibA2cQBAoRtPAuqEhBZUas/b6sG1mzFUNlmP0wxfHUVR3V5j/Cctr+CN3l70HnlFLlgE5WKcfKzkAWaj6j89DSm0dJzUbUOdXQYAbc1ySycVFdjmWYWxT4TuOgdeOdKL3t5evLFLLiGibMixoKPeOCp2Yc2cNQbzwztwPDiIoiatvAVFQ4eN1sYJv9A1dwAl4bOYEKu3Md3pwckht961Z+reO+FXJw+Ix2cdoDJtoP8DZYBf6KbSu6HujuCjqVXY0KqWbZzFlRRaOlZ1O70JUxn/WY996nZb7t+QWjrJyF1v9UAaM9/evj4OAHA/8YJcRERZkINTpomWUMMBvPPv/wTR/7EdPzwpFxJRpuVYS4doqbyAAyd70cuAQ5RT2NIhIqKMYUuHiIgyhkGHiIgyhkGHiIgyhkGHiIgyhkGHiIgyhkGHiIgyJgtBx2G66vawcOd/ZJHLz2SOt9vZ8Xq7ze+7rCuir3Dg7R7HwfdPp7BydnJM60z5jt/h5SML9+moSdpmzuLQHmCnupSNvtQNoAajFuBcLiyomRpv9zgCa+wTvHm7x1EXNd53WVcEu+qiCPn8QPc4AiWDQjK6xVGSsMVw/ugloLkV2wpv4FiPkCbAlGjtAa6YEqW50Ll7KzZoizvrCeAU5gRvCjlRm/Ya+XmxTGFOEIfSWrzbuh4F6sO47aVyxLT3JR2zwDK5nb6dyJz4zrydoa1ZWbXbdGzycUE+bzZ1J/w8Er0v6bwllXzfST8Pef/SdwEQ3rtFmXauAPGzUknJ/uS6bb/DlDey0NJxkK7aX44ijOLjPAs40FfITh5wrEx/GgXmo7gH4F40tvgUDoKkaZ1La/GukADuWATY0Gos8LnJ14C14xdMCeDk9AILEa1cXilaWT9tDyat11yTEsSdn1otJIhzoXNrBW5pien676DalK66AkdahfKjF3AF67HH5zKvXt1/R714Ko/1C6ynAX37KzEbeaAfjsGFzt31eEJ7X2duAJ6tUtoFdfHUwjsYi49FykVVOCfGBdSm7qSfR/yq3OengIXIVYcBx2bfST8PoK15KzbMD6r7jv8ubPK9iL6twC2rtf08DdgGbVvls9rXrCYKBIDIJeF9XcCVQnPdSb/DlFeyEHSUC7PyC1/MZyOocRvpqE2Urrmd7Vo3lkVXlqlbTnmtIoid/WEEuiLqQp5BdXFRcXtpwdHuoF6tLf9p7E26EKi57sAaqfiEH4fUls10p8ecQlv1Qsc76O19Bwca5BIbkUtoVH8VDvR/YPoF2faN9SiYGtFbNgP9IxjDajynXogG+j8QfgkrCeCcphfY5GtA8eUzeLnfKmeElnzOuGC+9csbWNATxMXQ1SO0uCITGMMqFGuZLEoL8QRimNZbZDFMW+3GUgWObJzFsaOXrC9cnuexwSUktLs7go+mYGRTBZQ6fKsxdvkqZoVnbdnUbfd5mJTWYkvhDXRbtMAsJd23zedRWost5Q9w5Zfad2cS5yMPUFBVqQSl0lrseWwEjT0j1j+WIpeE752yejkKCxN0kVl8lkm+w5RfshJ0ElHGNcZxsKkGgJHITb74VzYpXVOHfFUI3XbB26yVB7Hz+StGvptzo1Kqghp43SEcOjeKoroWlISV7WsalLEVb7fa7eerwiHfYQyXpJAKO7wDx7UU2HJZXN1VCN2WX5ENSpI2I12A8ku4GubMouka6P8grjvNUIxi1wPcuil0dbWuR4EYWJK5O4FbMeGXuKcB28rF+pKZxKtJumY2lbiAqQn94qvkBYLpItnWXI/qqcEk789a8rpT+Txc6Ny6Hp+lkE01+b5tPg93MQrEdOGeBqUbTssSe3cELy9ZIKjAc44/S8o3ORV0pjs9erAARhHSgof8q/+2ke5g+OqokNitA6fE1564ggm48TW9JRPD8HtquSntNQAE8cyaUYT07XsQCqeaCjsB/2nUmepOzy+C38P27d/D4UtyyeIpGT63Yu34BRyLJEiWpl7YjV+7igLPViMFgdhl4oiWwkBJXXBeSqWtaWtWxl7O6xd5pavp2HiFkjrBB5x3mFzOMTXj6r6qSRw7c8NIw11aiy3ld3A+2UVWSOmgDYCbJKpbZfd5bPI1YMN86kEPsNu3zedRWot39fM9mGL6cVVpLfZ4VsWlH1cmCyj7rhZae7S85FTQcWriqhhYjG4p6LPHtL8Ukrj5y1Ektq70FtfyV+1rxZb7Sj//y/0xVD+2Cgv3pU4jPQOp+cI+0P9BXF+888CzChtat6L4srL9qxHll76celvPQGpqnSgXx32PjahjH0rOn7hxl3SV16Nv46wyLtMzggF3MQpisxjTWhj9SQbu747gZWHcRTk2IfAkrFth/3lUYJsHccHfkaT7tvk8XOuxr7UYHx09g8ajl/BWXBenE0oLCpELcQFT/C4du1/LGWrLVF4GnUTKuiIIrBFaSL7UkriZWlfa3xLNIMtNat/51KAwbmNx4VdnJFldKMzUvnpHlDTbC6Y6lS4ePcupPmsJuHJGusir4xNaa0NJNvcA1RsXf6EamIkpkw+EILepxKUMXpdWYq1LCQzKr3JlNle1L/E03oGbk1jQ/p2sboefR1tzPZ6IXEq5JZB83zafR3QWC3hg/hykYGlPnTlnen/WBm5OxrX+aHlYVkEHgD4DDAC83Sm0dMIXMTpfg0AqkwecCk9hDjV4Rp3UoARH+UX20p5IkMRbn9wByuuFGUzKxfyaNP0X8rReK1q3iaOU0kqAKvA06DPSNvlqUS2MGxgBJ1G3mdi148KmqlVLM6spMoExrMY2vcUmpMqWWjGNRy/gSkyZMq0NdJspLaMCbSwlWd0OP4+UJg+Iku7b5vO4O4FbsVXYsFWYXbhxNRbGJyzesxUj4DiZBKBMqDDGn5xgavL8kIX7dBxoD+NgExDy+TFsKlDu8SkJW8x4A/T7e7RAMzc0iLm6ZzET9CAUDmJnf0D5d00YB/1RnHxpB5403S+j3kNUaNQ4F3cPkTXlPht5LGLUeA/tYaO77vZZnIwG0IjjjurWvNDxDv5qI/AP/2WJx3VM90iY780w3Vuh0+4dke8bke7xke+9UIn3tJjuCzHdu2G+n0QnvCbuHiGrC5qnQR1/SHK/iSbJ/uPuEdIpdRVfTvCeLO6Fsa074eeR4Lit6kgo+b4Tfx6I27/lPU/6a1XqZyKfE422/7hyq8/Szq430PvtKixc/gm+F/yFXEo5IjeDDhFRqpiaPC8sv+41IlphmJo8n7Cl44B115nGfskboocvQfeWJp3uKqKHgEGHiIgyht1rRESUMQw6RESUMQw6RESUMQw6RESUMQw6RESUMVkIOg7TVWeNckxLmS4a0PL8KLl7xNTUS8LTgL79SoIzZaVei1WNTav4Jlj5ONs8DQnXL1tOxM+IqZdppclC0KGsKK3FHg/0jJSNjtMb5zJlpeklW1na5GHWTbRyZSHoOEhXnVUdOPUwVpcejWIOUfw6bE5NvSSis1hQl5gX0/qayEm4KGuYeplWshy8OVRedFNYNBOwWNRTWJDTfxp7O9wY8l3BM9pr5gdx8qUdmFa3wzlxsVDzc6aVB26fjU8eZ3Ns5pUL5ON2QF07Cg9hwcJNvheVpF1WKyFLC3PKi0DG3e1uWghSWoQyxTvf4xZ6dFi39UKk5kUozXWbFzIF4t+3tm3qdUvnzNOg5Ky5AOxpXY8CpH5eiJarnAs6ZV0R7HKHLC740C/6NTe1QCMFEv9p7O2oR5G+NI253Ns9jgCEYKIHKXNwsD4GNeDMWAWj+JWxy7oi2LXuuhrwHHoIQcf+AlqBI83Aq9oFMW5VZiXgPBG3UrKirbkV26BdUJUgsXbc+rVx5H1pF2s16NjXHb/Cs06qOy7oehrQ53MlTZvgtO64uvRgpga60lq821qBWwn3RbRyZKF7zYE1G6wH2f2bUYNB9OnpADpwcSiGyufNOXAmzmlroXXg49tA0VPKRIXh9wYxJ9Rd1vAsMHTWWWukvQXewsQpp73P12DinBG8pjtDmCh8Fs/pqbIduHQY39u+fckCDgC89Z6WvfKB0opQ88AYF+5JI+BAy7li5KlRcqokyt9SgedMaZtj6Lp8BwVVlQ4GxpV8LGMJM3Aupm6g7Wlz3QP9IxhzVWBTKYxcMGkkQjO2vWocd+QSzk+twtp14vp8QsIzNRdNsVsoJlqhci7oTHd6ELptpI02zWyrcaOosB67hJTS8QtxjuJjIdfO8J4qo/tNTdSmJFPbjefWAaOXnI0nlT3lTjIOsxtfKwEqm9JMlZ1lbc3ajDY1P71QVv1YksRopYV4AquxTd+2NS5/jrnuVrzrkz+vBBzUnZiSbdPI7im/r2IUu+LTYqfCdlvT+FkMXT0WLSaiFSjngg7UQKGlm56rO2AOPPODOCmnlE7Q+ojXg2s31ZaRfzNqcB3XHK4OPf2pkEM5gYlz0nH5cn/16U2+F7Gt/A7O65kwB02TEMbu26WfFrdV/4RxI62lpf056nbTJa/bzli/tO1RrXtLSc28GE+UiMFTCXJEZC8ng45Bmd2mO3EFE4X1aFzEfT3Tl65jrqQc3oZnMRdOYbwl6b7VYNa0yHtvGg7gnd5evNPxglzycAmz3dqazS2dgZuTWBDTJ4vuTuBWTEx/nIoYpueB6qfVbUtr8a7YknFUt1SH8PzA+ANU+xLdi2RXDtu6CzzPG9uqKaU/SimgJsfUy7Rc5dhEAnl2mNUsMvPsNagtDGMiQfzEAJm3exyBNfLsMot9Q96/vO9ks9fEmXMOPYSJBJq4gXSdeWbaQuQGPvNUYFYc9C6txbvaLCzYzDCLS2OcjLjvOzh/ZhZbtgLdKdUtH3/iGWZy+mW5PP26LdJ0CxMi0sLUy7RM5VjQISKAqZdp+crx7jWilYapl2l5Y0uHiIgyhi0dIiLKGAYdIiLKGAYdIiLKGAYdIiLKGAYdIiLKGAYdIiLKmCwEnSVIV+0/jb39Wh1E0L9XO9u1x8J3S/2+GGWLpWQV7WuuUFctSGEhU6LlwNOAvv0vorPUnH7diSzcpyPmpQF29regSEzEpi5TUxc1P2ei5c2JWyLnIXO4zA5lg/K9KglrSfqUJYuKhg7j+KXN2NtRjzlTAr/FUJfnmR9E43uwyDeUOPmcIvHyOpBzIElL98QtSQSr+m1odVhsZ5v4LhlTUjxpaaC4uqWcTtLq5hpTcrwkx223b0e0+qVzHp+TKpX67b4LNu8rCfl8Qj5fkL8vwnHL3yObpa0UwvdByCE1sO5F7PPEHH9XstDSWYJ01eEdOJ7S6tK08gjfrfAU5hDDzKj8mnQpi4Eu3J/VV6wWUx1s8jVg7fgFY9Xu8nqhJeRC524lSDUePYPGMzcAz1ZjQVVPg5K47ugZNB69gCtYj33yoqdCXqTGo2dSvlD1bQVuTcklyr6Vi4dS7/mp1di2u9ZR/iKgAkd80Lc9FgE2tAq/fj0Nytp/2jGfuQF4GtBZCiWnk76dOe+TdgFNetyltXjX58KVMwn27YgLnVvX47OpO3IBELdiudOAA7Q1qz9OLL8LNu/LgQXteySdL0ANDK0VuKWeF9Nx3x3By8J25+fF75mSikOs9/wUzDmkorNYQAzTd83p153IQtARc9z0IPSS8euzrCuCg/3jCKwBiuoOGLlphG40b7eRs8bcLbcbgfcjCHSF9W2014rdKto+lD95VWi16y+uXOmqOdhRjyIYuX4O9kcQEJK0mesWytrDONh9Wq07gkC72j34/mmU6fWH4dW6DU1ldtT37VePMe59Gd1OxrlLdtxW3VBi3fKxmcviukrb1c8jQXnyfUufR1x3qrhvebFW8bvVgVOWaSZewRu9veg98opcYOut97Q0DfG5cgb6PzAlybs2BRQ8Vqw8lFekvjuCj6aE1awjl4QgoqxojcJChxd+G6W12PPYCBp7RiwWoY1PTvfWL29gQU98Z2cSrwq/dAduTmJBTAZY4jLnZbo7j8+0f9tJetxA2zfWo2BqRL+gDvSPYAyr8Zy0MrqS28k6GG3yNWADbuD8J3KJM5Z1l9ZiS/kDXPml9nlO4nzkgZGI0OZ9LY4LnRuTZcY1S5rCpLQWWwqlRI53R/Cy9nlHLqWUciQrQSeR6U4PDvmqELoNzA0dtsyXo+XaCd02bapywbsuipPBQcytaUFd9DBOiplF28PYVRdFSK335JAbAeECWta1V+n20/PhaN1oHTjlq8Kh4CDmMKpvb8qX4z+NzTiub3tyCPC2CxfnNfUoCVchdNsFb5MbQ76zUmbRGgQ63BjyVeGQ7zCGkSiNghUXvB0BzAS1c1ODgHSBrmxSuiyVche8zdbn5NC5UVQ2iUHJ6KbSz4u+cvZuBN4Xy5T8R6ZxlSY3htXjOuQTEupBOWeN4r595u4vb7faDaudk5IWIWjJ+z6MYTENRo7aVOICpib0i7OSzwhLF1iSuTuClxO2iopR7HqAWze1C0sFjrSuRwGWJuOpliJD+5Xf1lyPalOiuySSHreSy2jsE61caUlWx+U8SqK0Fns8wJULzi+cjriLUSC+R0+D0h3mKla6EpO+r0UqrcRaVwxY96KRyDBhq9WFTVWrhHNoLuvcuh6fXV66c5NTQWcpTOg5ckYxJI0JOUopnShVtp3wDpwS9jd96TrmCt14UntifhAX1QvqnGWK7BiGg9qxKfl5itw18osSMlJ0A8NXR4GScnNL6fZZ/YJvlO9GwF9jPp4TfoRuu1DToFzcy7oCqJwXU4QLHKUPN+qypmVylQXxzBoxPXgPQuFRFK3brLyv9hZ4TftOx9v44fbt2P7q23LB0vE0YJvp167xfN/+VqXL6cwNLGgXIlFpLfZ4VmFM/g/vWo99ekZU61/u6VMnSeyvB/qVbhXHF2+dcqESWx/KL+MLuFW1FX37W5UuxBR+HTuhtDa2Yu34BRyLPDBalyoloWD8uEPbN9YDNqnLxSy0VpNGEtUNqN1/+1vR5wPOHx00pYNfrAKPcj779msTW1TuYhRgNdbiktpFZtFVq34H+/ZvVVp5FpltN/kasGF+cEmz3i67oJOYfUrppKmybUldQR31KJJfkio5cKRCDHgAJq4K418n/EJrJfmY2pNuFzAzZd38t00f3oFTwUFA7yqVujPDO3D83KjxmYjddv5yqStzHAebnAfhnKAmphvrl7o4yuuVfDtH1Uyo7mIUxPWJKy0NRC6Y/8NLffHHIi5sEwOPdoFLKyitwobWrSi+rI0PKK0IfbzKYd1tzcpF7Jj4K760Fu/u1+q+gCuF9Qm3T0e1rxVb7ivjGy/3x1D92Cp1zM2GpwHb5K4jiTn77SA+82y1DDyWXOuxr7UYHx1Vg1JpIZ5Qx0IWa6D/A+G41HMqBpWY+L5i6Lp8x9yijmgB6QwaLxdjX9znUYFtHsT/YFqkFRR0FHYppZOmyk7C230AXgiptIODmJNflKpEF3sn5qO4Jz+XQNFT5rGxr5UYj+5FE/9nBBykD9cmfWjdmXLgOeHXtwvN1GOXabxI7MpU/1JJipdN6uwgOWgMzMSUWUBiMjl5vEObzTU1aJsMTxk7EUhBKeGv7zjKhIgF0/EqXW6zWqZ2B3UrM73M7w/6uIv2izmGrp4LuBJbjS1OL94JKZM6YDpXUrBMou3p1eaWo894bJktVx2jcyQ6iwU8wJUzwnmy/IGxFNTxP0101rr1nEhkIq4F1tZcjydsWoDpyMmgcy8aM7pRlkyqKaWlVNmAOgsqUXeQGCR2I9C+iJaO/zQa61zm1oljQexsqsHczYsOLs5qN15di3FO2lvgLTS6JqcvXcfcmhaLyQV2KbzjTX+qXb2smQJc+CJG5+PHpnSjUcwJXaPebnkigRPpTyRISgg4cUEjMoExiGm4K7DNI/anGwHHflaa1o1ljBGlT0vDrc0oAzb5ap2Pu4gBxyIYAdK4VWkl1rqcBQY7b31yBxBTqquTNa5JXUJWg/3mVswZNPbf0WfPWXYpqd2lxtiXwqpuJeX6KmzYqo2lqJM1xidS6lZU6k4UBFVaV6z2PVLTvRtBPfm+4z5rq8kDKUqUcj0L9+k4IaWO1u/HkdNFK+aGDuN4J4z7NEaN+2nudUWwyx3Sf30nTiltka7a6j6g9rDQzRPDcFBtKWn3DqklE0ODKKpT7+lpD+OgP4qTL+3Ak/o9SDXY2R/ATNCDUDj+fekpuG3FH7dyPrQuM/n+lXjmcyK8J4303sxpuJMcu+lcIa7uuM9CSv9t997E7eeGDmPIfQDPXE38PuO9gjd6v4OqiZ8t6bhO/H0dkO7tMN+XIt5bYXXvBYTXyOXyPT7JJbgfRghwpvrle4SSke/70Oh1x9/7EXdPibb/uLTq9sdtvk/HOvDZBkWo9ZhSjcv7tt4+cd3m923+vOS6VdIPDu37ZD5f8vm0uncoyf1gpvMlf9Zy3QarzyyhBCnXczTorDRBIQDJZXbsgwoRUcYlSLmek91rRESUr5KnXGdLJyckbunEd0GJYhgOHgfa2dIhovzAoENERBnD7jUiIsoYBh0iIsoYBh0iIsoYBh0iIsoYBh0iIsqYLAQddWHMxaSrfkhMuV0SLb+S0MNMj2z4/p+GEG4MIfynuXHOiIhSkYWgk7u0fD4nhxIsK+I/jb3ygpWZVPZ3aCq9jXN9Afh/lXhlaCKiXJWFoLME6apz0sNMj6z4ZuGTwN1/xE/lAiKiPJFzN4d61QUx+7BXvxPfvPileYFJ8+KW8YtMxi0QKSz+qSxkqS7KqW9h8TqLRS0VFotjJrW4BSa/uf4c/ubRD9nKIaK8lYWWjr2iugPKRV/t6qr0azlW5BTFKaZHTpuDdNVERGQrJ4MO5gdxUm1lmNI+L0l65GxaXHrkf/1oAR785rb8NBFR3sjJoGNKQBbegeNa99di0yPnqW+uP4dwYwhfnw6g8cZFuZiIKG/kZNBJarHpkfPQz280wd8XwD+WhdC3frNcTESUN/Ir6CxFeuSScnV8KIidYjZMJ+zSVdtaXHrk//ObBax6dI38NBFR3sivoIMOnFInD+g3cYo3YbaHTc8fbHJjOGjMTJvuPI5haN1zAcycG8ScXrd606rWZbemxeIm0Q6cOjeKyiZtHxEE/EIxEREllXNTpikxTpkmonyXZy2dle3n8/eAR/8Y35QLiIjyBINOPpn+S5z7zUb8DddeI6I8xe41IiLKGLZ0iIgoYxh0iIgoYxh0iIgoYxh0iIgoYxh0iIgoY/Iu6CgppZX11Lzd4zj4vpb2QGSsLhC/qkA+UI7/YaS7zqq4zKuZSfFNRLkj74KOE2Vde+GFsDCouCDoMuXtVi/eD0N7OEFwz2H/9gd4s+914+8ob6klygV5F3SmP40C81HcA3AvGgNmpow0CKon3S5zegTKUQ8xxfd/fxM/aPyR+ncSlx//MwR/vFZ+FRFl2DK8OXQ3Au8fQM1NKY21qqwrIuTgsUg3nSTdtbksfltz3XKabTvxKbFN2yfYt7xP3e2zCdNtx6X4Vs+Zt1B7PIqQz49h/2nstVyJWy0H7OuWzqd5WycWl+Jb862jr+PfzJxEx9/ekouIKIOWUdCJv2grhODgP42dDRdxSr0olnVFsGvddZx8aYfSKmoPqytTW6Sh9p/G3o5nMaqVtYdxsAnGBdR/Gns73BhK6YKqkQOl8rgkrAYdu32r3Wt1UTmYWNWtnCfoAU0NODNikJK0h3HQHzXOk86mbvm40zpHSxF0vom/7qvHzH/uwsn/JZcRUSblXfdaYh045avCId9hDM8rv7iVJG9CAAnv0AMO5FTY2I2AvwZzQ8fjAw6AsoZnAbHsxFkMz8u5deTHDrW3wGtKw23mbN8J2KX4bm+Bt3AUoUQBJxmbur3N9ebjTkv6Kb7X/7hTHdP5M1SNDzLgEOWAZRR0nJBmtZm6jmpQUqiOL1h40u1CkSmPj9gdpWYsFXPtLOHAu+2+k7FJ8V32lFsfI0uZTd3ZduNvu/Rxnf86U483327FevlFRJRRKyroeLsPmGe1BcUkbsqgdjJG68n4M43ZnPDrz4dm6rFrCQOP7b6TSZLi2zK7aiqS1J1LbgzeRsxVjHK5gIgyakUFHQDCbLfdCLSLLZ0eXLsZQ2WTeB+JYfjqKIrq9jrOFHovGpOfSmw0irnCZ/GcWre329yScbLve9EYitZtjg9ydim+7coRf3w6m23Nx5RGenBg0Sm+Nd/6ztfhGr+FD8UnGw7gnd5e9J48gBfE54nooVlGEwk08uC2QJqNNTE0iKI688C2PBss8ew1mGZiydulOktL3H5u6DCG3AfwzNVEs9dgUb80Ay3J7DXIM+PiyuW65feXePYaTHWLxxTDcDCEko4N+DiF85LuRIL1P+7Ev9v4qPHE+P/ED/b/XHwJgBdw4ORf4U9c4/jZ9h/Cee1ElK5lGHSInHvlSC++89g/4Ce7DuMXciERLbmV171GBAC73kBvLwMOUaaxpfPQxXc/mZi6wYiIljcGHSIiyhh2rxERUcYw6BARUcYw6BARUcYw6BARUcYw6BARUcbkXdBJmq46lzJcWh6Lkp45/vmHKYid/ZGkS+hkz0NOV+39CL99bUL9G8EfMnfS8f9e0fY7gd++8rpcTLRi5V3QIUrJ3CC+/FolvvJaLR7JYCrZP3q7El95rRJfHk5hDT6iFSDvgo6TdNW5S835E5cMbaV6iOmqiSgnLa+bQ9UMl6GbzyIgLJ4pLvzp7R5HYI32SEw5LWXr1Ba5dIeUFQPawzj4/BWcjAZMC3OKdcct+jk/qGfbNJXFrUIQxM7+Dfg4GEWdtiCpsC3k7TVx9VgJYmd/ADPnrqOmyVndcQt2Qni9uvCo8ZrU0lXHldtKb8FPQO1e+0YUX/7Jd/EFuSxD/uXbI/jd4yF85e0fyUVEK1LetXRsFdYj4A4peV2Cg4CQEqCsK4JAiZH/5eQQ4O2wTmVgaU2LEoR8VTh0bhRFdS3Gtu1h7KqLIqTllDln/sk+3elR95mou6UGgQ43hnxVOOQ7i4nCemzWxjf8p9FYBwwH1Vw9t9XAYRtwNC54m7S6D2MYQjoCi+OubNLGgHoQekk5FuX1Qew0BZzdCLzfgiI9189ZzNUdEMZlgtjZ5NaP+5CvKsWAQ0TLzfILOuLFOHwRo/Mu1DQoF8zNdS5MhI1f+NOdx52nfYZU94krmIAbX/NDT3U9cS6VJftlMQwHte078PFtoOgpJTCUNTyLovnruKamfR6+OgroabadEOtW8gYpeW60FN1njeM+4UfotnbOoHQJBgeBuhYEugKovH3WSIlgk65aIdaVjvTTVRNR7ll+QcekB7+eER/n55jB9KdRQEzy9nwNcPtK2gFOzhaaKEW3LrwDfUNueOuiCImtK9t01VrA0lJtp9CqJKJlaZkHnd34Wol4UXWhRMyDhhqUCBk6c9ZoFHNwwduhXNgDa0bNF/8UlT3lNk3A0FpUCuWcmbSHsWvddYSG3AjI073t0lWHd+C43p3pRoCBh2hFW95Bp70F3sJRfHwCepdVpd+4aJZ1BVA5P4iLegZN4QLcHo4fuE9IaVHp3Ur+09hryvK5ON7mekAfN6nCoZQyb8rUbsarHUZXm2lsSjlnQ3qXmTqOE96B4c7j5vEgm3TVMrmF5czSpKu29KXH8au1a3Gj6nG0yWUA8Ohq3Fi7FjdWCxlIBf9x9VrcWLsWH1gXE5GF5Rd0xO6eJpjSLg/vqUJoxijfVRdFSJ/F1YPQCaEryB9FKOGgf7zhPWcxsaZF2bbDjaHgIOb00t0IvC90P2mv6xbHPhIbfk/sotL+UmkxGK2kg/0tgJCqerrTo7ZAtHPmFsZ/1Jlp+jhOD0LhURTVHVBu6EQHTqmTB8Rj0ycStIfNx2yqm4hWouU1ZXqZ8naPoy5qMfUbTqZMr2CcMk2Uc5ZfS2fZsRhjQRDPrAHmonk4K4KIVjS2dPKB/zT2ajeNqpSbLGuYCjsZ70f47be1sbUYHulRlsIpeuQRzP3hDwCA7z7+ODpWr8b//vxz/MXExKKfr712DVDXXvvnKnXX42fZ0iFSMejQijPy3HPY9PHH+PPCQrQ+/jj+cnISf15UhHa3e9HPT/7ud/LuiEjwr4qKil6Tn0zmmWeewa1bt+SnifLHF76ANysr8Y1HH8XOsTFM/u53GF5YWJLniSg5tnSIiChjOJGAiIgyhkGHiIgyhkGHiIgyJgtBZzdONIYQbgzhRAbTBxMRUfZlIej0oL0vAH//ZTy58e/wfbmYiIiWrSwEHVXsIm4+eBJ/7HRNTSIiynvZCzpERLTiMOgQEVHGZDHoXMQ//aYA68o3ywVERLRMZTHoAD/9VQAfPvofEG48h8Mc2yEiWvayGHQ247A/hK9PB+Dva8IB5/nSiIgoT2Ux6ADAAu4z2BARrRhZDjpERLSSMOgQEVHGZC/ouDZj3ap7+Cd2rxERrRhZCDrq2mu+jcAnvfipXExERMsWk7gREVHGZKGlQ0REK1XKLZ2vfvWr8lNERESOsKVDREQZk3ZL5/PPP5eLiIiIkmJLh4iIMiatoLPrx2OY+HASE2dj+Au5kIiIKIFFda+9/uYkAtGnUPvaI/LLiIiI4qTV0tH8KFIAl/v38tNERESWFhV0iIiIUsGgQ0REGbO4oDP6JcSqF/C6/DwREZGFxQWdfhdq/9OXEPhwEhNv8r4dIiJKbnFB5/szmNgDHP9WBSp/wOVxiIgoucUFHQD4v1/Ef5OfIyIisrD4oENEROQQgw4REWXMooLO654FxKJflJ8mIiKylFbQ0dZea6kuQIhL4BARkUNpr71GRESUqrRaOkREROlIuaVDRESULrZ0iIgoYxh0iIgoY/4/YUfZctzWAq4AAAAASUVORK5CYII=;" vertex="1" parent="1">
          <mxGeometry x="481.40999999999997" y="669" width="192.59" height="90" as="geometry" />
        </mxCell>
        <mxCell id="FDqJe7q0dYofpkMNyn92-47" value="" style="endArrow=classic;html=1;rounded=0;exitX=0.5;exitY=1;exitDx=0;exitDy=0;" edge="1" parent="1" source="FDqJe7q0dYofpkMNyn92-35">
          <mxGeometry width="50" height="50" relative="1" as="geometry">
            <mxPoint x="401" y="669" as="sourcePoint" />
            <mxPoint x="403" y="695" as="targetPoint" />
          </mxGeometry>
        </mxCell>
        <mxCell id="FDqJe7q0dYofpkMNyn92-50" value="" style="endArrow=none;html=1;rounded=0;entryX=0.5;entryY=1;entryDx=0;entryDy=0;edgeStyle=orthogonalEdgeStyle;" edge="1" parent="1" target="FDqJe7q0dYofpkMNyn92-34">
          <mxGeometry width="50" height="50" relative="1" as="geometry">
            <mxPoint x="403" y="649" as="sourcePoint" />
            <mxPoint x="204" y="659" as="targetPoint" />
          </mxGeometry>
        </mxCell>
        <mxCell id="FDqJe7q0dYofpkMNyn92-51" value="" style="endArrow=none;html=1;rounded=0;entryX=0.5;entryY=1;entryDx=0;entryDy=0;edgeStyle=orthogonalEdgeStyle;" edge="1" parent="1" target="FDqJe7q0dYofpkMNyn92-36">
          <mxGeometry width="50" height="50" relative="1" as="geometry">
            <mxPoint x="400" y="649" as="sourcePoint" />
            <mxPoint x="520" y="709" as="targetPoint" />
          </mxGeometry>
        </mxCell>
        <mxCell id="FDqJe7q0dYofpkMNyn92-52" value="Result Hub" style="rounded=0;whiteSpace=wrap;html=1;" vertex="1" parent="1">
          <mxGeometry x="108" y="928" width="590" height="100" as="geometry" />
        </mxCell>
        <mxCell id="FDqJe7q0dYofpkMNyn92-53" value="" style="endArrow=classic;html=1;rounded=0;exitX=0.5;exitY=1;exitDx=0;exitDy=0;exitPerimeter=0;" edge="1" parent="1" source="FDqJe7q0dYofpkMNyn92-46">
          <mxGeometry width="50" height="50" relative="1" as="geometry">
            <mxPoint x="400" y="849" as="sourcePoint" />
            <mxPoint x="403" y="926" as="targetPoint" />
          </mxGeometry>
        </mxCell>
        <mxCell id="FDqJe7q0dYofpkMNyn92-54" value="" style="endArrow=classic;html=1;rounded=0;exitX=0.5;exitY=1;exitDx=0;exitDy=0;" edge="1" parent="1" source="FDqJe7q0dYofpkMNyn92-52">
          <mxGeometry width="50" height="50" relative="1" as="geometry">
            <mxPoint x="413" y="1129" as="sourcePoint" />
            <mxPoint x="403" y="1109" as="targetPoint" />
          </mxGeometry>
        </mxCell>
        <mxCell id="FDqJe7q0dYofpkMNyn92-55" value="&lt;font style=&quot;font-size: 18px;&quot;&gt;...&lt;/font&gt;" style="text;html=1;align=center;verticalAlign=middle;resizable=0;points=[];autosize=1;strokeColor=none;fillColor=none;" vertex="1" parent="1">
          <mxGeometry x="383" y="1109" width="40" height="40" as="geometry" />
        </mxCell>
        <mxCell id="FDqJe7q0dYofpkMNyn92-57" value="" style="rounded=0;whiteSpace=wrap;html=1;dashed=1;fillColor=none;" vertex="1" parent="1">
          <mxGeometry x="20" y="520" width="784" height="340" as="geometry" />
        </mxCell>
        <mxCell id="FDqJe7q0dYofpkMNyn92-58" value="&lt;b&gt;Processing Layer&lt;/b&gt;" style="text;html=1;align=center;verticalAlign=middle;resizable=0;points=[];autosize=1;strokeColor=none;fillColor=none;" vertex="1" parent="1">
          <mxGeometry x="15" y="490" width="120" height="30" as="geometry" />
        </mxCell>
        <mxCell id="FDqJe7q0dYofpkMNyn92-62" value="" style="rounded=0;whiteSpace=wrap;html=1;dashed=1;fillColor=none;" vertex="1" parent="1">
          <mxGeometry x="20" y="900" width="784" height="250" as="geometry" />
        </mxCell>
        <mxCell id="FDqJe7q0dYofpkMNyn92-63" value="&lt;b&gt;Output Layer&lt;/b&gt;" style="text;html=1;align=center;verticalAlign=middle;resizable=0;points=[];autosize=1;strokeColor=none;fillColor=none;" vertex="1" parent="1">
          <mxGeometry x="25" y="870" width="100" height="30" as="geometry" />
        </mxCell>
      </root>
    </mxGraphModel>
  </diagram>
</mxfile>
